<?xml version="1.0" standalone="no"?><!DOCTYPE svg PUBLIC "-//W3C//DTD SVG 1.1//EN" "http://www.w3.org/Graphics/SVG/1.1/DTD/svg11.dtd"><svg height="1024" node-id="1" sillyvg="true" template-height="1024" template-width="1101" version="1.1" viewBox="0 0 1101 1024" width="1101" xmlns="http://www.w3.org/2000/svg" xmlns:xlink="http://www.w3.org/1999/xlink"><defs node-id="40"></defs><path d="M 0.00 0.00 L 1100.60 0.00 L 1100.60 1024.00 L 0.00 1024.00 Z" fill="#ffffff" fill-rule="nonzero" node-id="42" stroke="none" target-height="1024" target-width="1100.6" target-x="0" target-y="0"></path><path d="M 353.50 126.90 L 367.40 122.80 L 381.30 119.20 L 395.40 115.90 L 409.50 113.10 L 423.80 110.70 L 441.70 108.20 L 459.60 106.30 L 477.60 105.10 L 495.70 104.50 L 513.80 104.50 L 531.90 105.20 L 549.90 106.40 L 567.90 108.20 L 585.80 110.70 L 603.60 113.70 L 621.20 117.30 L 638.80 121.50 L 646.70 123.60 L 654.50 126.10 L 662.00 129.00 L 669.30 132.30 L 678.90 137.20 L 688.10 142.60 L 697.00 148.50 L 705.60 155.00 L 713.90 161.80 L 721.90 169.00 L 737.10 184.40 L 744.30 192.50 L 754.60 205.00 L 764.30 217.70 L 771.70 228.70 L 778.60 240.10 L 785.10 251.60 L 791.20 263.40 L 796.80 275.40 L 802.00 287.60 L 806.80 300.00 L 811.10 312.50 L 814.90 325.20 L 818.20 338.00 L 821.10 351.00 L 823.40 364.00 L 825.30 377.10 L 826.60 390.30 L 827.40 403.50 L 827.70 416.90 L 826.90 425.60 L 825.90 430.00 L 824.60 434.10 L 821.80 439.20 L 812.00 450.80 L 803.80 459.80 L 769.80 494.70 L 761.50 503.60 L 753.60 512.90 L 739.10 530.40 L 735.10 534.50 L 730.90 538.20 L 724.80 542.50 L 687.40 563.10 L 665.30 576.60 L 654.60 583.70 L 644.10 591.10 L 633.80 599.00 L 624.00 607.40 L 595.30 609.00 L 566.70 610.00 L 538.00 610.40 L 516.50 610.30 L 495.00 609.70 L 473.50 608.70 L 452.10 607.20 L 430.70 605.30 L 409.30 602.70 L 388.10 599.60 L 366.80 595.90 L 354.70 588.20 L 342.40 580.90 L 329.80 574.10 L 317.10 567.60 L 291.20 555.40 L 271.40 547.00 L 242.70 535.40 L 234.00 531.20 L 225.50 526.60 L 217.30 521.50 L 209.50 515.80 L 202.10 509.70 L 196.90 504.80 L 192.00 499.50 L 187.50 494.00 L 183.30 488.20 L 179.60 482.20 L 176.30 475.80 L 173.60 469.10 L 171.20 462.10 L 168.90 452.60 L 167.00 443.00 L 165.50 433.40 L 164.60 423.80 L 164.10 414.00 L 164.10 394.60 L 164.80 384.80 L 166.10 371.90 L 168.00 359.00 L 170.40 346.20 L 173.30 333.40 L 176.60 320.90 L 183.30 298.80 L 186.90 289.30 L 190.80 280.00 L 195.10 270.90 L 199.80 262.00 L 210.10 244.60 L 215.70 236.20 L 223.60 225.30 L 232.00 214.70 L 240.70 204.40 L 249.90 194.40 L 259.20 184.80 L 268.90 175.50 L 277.10 168.20 L 285.60 161.30 L 294.40 154.90 L 303.60 149.00 L 313.10 143.50 L 322.80 138.60 L 332.80 134.20 L 343.10 130.30 L 353.50 126.90 Z M 267.40 409.80 L 259.40 410.20 L 251.00 411.00 L 245.40 411.90 L 234.60 414.70 L 229.50 416.70 L 224.60 419.20 L 220.10 422.20 L 217.00 424.70 L 214.10 427.60 L 211.60 430.90 L 207.20 438.40 L 205.70 442.20 L 204.70 446.10 L 204.20 450.00 L 204.30 458.00 L 206.00 465.90 L 207.90 471.00 L 210.30 475.80 L 213.30 480.50 L 216.70 484.80 L 220.50 488.60 L 224.60 492.00 L 229.50 495.40 L 234.60 498.30 L 239.80 500.80 L 245.10 502.90 L 252.50 505.00 L 260.00 506.60 L 267.80 507.60 L 275.50 508.00 L 283.40 508.10 L 291.20 507.70 L 302.90 506.40 L 314.20 504.60 L 329.20 500.70 L 336.60 498.20 L 343.80 495.20 L 352.90 490.20 L 357.20 487.30 L 361.20 484.10 L 364.80 480.50 L 368.20 476.50 L 369.90 472.90 L 372.30 465.40 L 373.50 459.60 L 374.30 453.70 L 376.30 429.90 L 380.80 425.80 L 385.00 421.50 L 388.80 417.00 L 392.20 412.10 L 395.40 407.00 L 400.60 396.30 L 402.80 390.70 L 405.10 383.00 L 406.80 375.20 L 408.00 367.20 L 408.50 359.20 L 408.50 351.30 L 407.90 343.40 L 407.10 338.30 L 405.70 333.50 L 403.70 328.80 L 401.30 324.40 L 398.50 320.20 L 395.20 316.40 L 391.60 313.00 L 387.60 310.00 L 383.30 307.50 L 379.90 306.00 L 372.60 304.00 L 368.70 303.50 L 361.70 303.30 L 354.70 303.60 L 347.90 304.50 L 341.10 305.90 L 334.40 307.90 L 327.90 310.30 L 321.50 313.20 L 315.30 316.50 L 309.40 320.30 L 303.70 324.40 L 298.40 328.80 L 293.30 333.70 L 288.50 338.80 L 284.20 344.30 L 280.20 350.00 L 276.70 355.90 L 273.60 362.10 L 271.10 368.50 L 269.00 375.10 L 267.50 381.80 L 266.50 388.60 L 266.20 395.50 L 266.50 402.60 L 267.40 409.80 Z M 589.50 309.20 L 586.10 311.80 L 580.30 317.50 L 577.80 320.70 L 574.90 325.30 L 572.60 330.20 L 570.70 335.40 L 569.30 340.70 L 568.40 346.10 L 567.90 351.60 L 567.80 357.10 L 568.20 362.60 L 570.30 374.30 L 574.00 386.90 L 576.40 393.10 L 582.20 404.90 L 585.60 410.50 L 589.50 415.80 L 593.70 420.70 L 598.30 425.40 L 603.30 429.50 L 608.80 433.30 L 603.30 447.40 L 601.80 452.30 L 601.00 455.50 L 600.70 462.00 L 601.20 465.10 L 602.30 468.30 L 607.50 476.70 L 611.20 481.40 L 615.30 485.70 L 619.80 489.60 L 624.60 493.20 L 629.60 496.40 L 634.90 499.20 L 640.40 501.70 L 648.00 504.40 L 655.80 506.60 L 663.80 508.20 L 671.90 509.30 L 679.80 509.80 L 694.90 510.10 L 702.10 509.80 L 709.20 509.00 L 716.40 507.80 L 723.30 506.10 L 730.20 503.90 L 736.90 501.30 L 743.30 498.10 L 749.40 494.50 L 755.30 490.30 L 760.70 485.70 L 765.80 480.50 L 768.00 476.40 L 769.90 472.00 L 771.40 467.40 L 772.30 462.60 L 772.80 457.70 L 772.80 452.90 L 772.30 448.10 L 771.20 443.50 L 769.50 439.00 L 767.80 435.90 L 765.80 433.00 L 763.40 430.30 L 757.40 424.70 L 754.00 422.00 L 750.40 419.70 L 742.70 416.10 L 738.70 414.70 L 726.10 411.30 L 713.50 408.70 L 714.20 402.60 L 714.40 396.50 L 714.20 390.50 L 713.60 384.50 L 711.00 372.70 L 709.20 367.00 L 704.40 355.80 L 698.30 345.40 L 690.90 335.70 L 682.40 327.10 L 677.80 323.10 L 667.90 316.20 L 662.60 313.20 L 651.90 308.30 L 640.70 304.40 L 634.90 302.90 L 629.00 301.90 L 623.10 301.20 L 617.20 301.10 L 611.40 301.50 L 605.70 302.40 L 601.50 303.50 L 597.40 305.00 L 593.40 306.90 L 589.50 309.20 Z M 462.30 407.40 L 462.10 410.60 L 462.50 413.30 L 463.40 415.50 L 464.80 417.60 L 466.50 419.50 L 472.10 423.20 L 483.30 428.40 L 482.70 432.60 L 481.70 436.60 L 480.10 440.30 L 478.10 443.80 L 475.70 447.00 L 472.90 449.80 L 469.80 452.30 L 466.40 454.40 L 462.80 456.10 L 459.10 457.30 L 455.20 458.00 L 451.20 458.20 L 447.20 457.80 L 443.20 456.80 L 436.60 454.10 L 434.40 452.80 L 432.60 451.30 L 430.20 448.50 L 428.20 445.40 L 423.10 435.20 L 421.10 432.00 L 417.70 428.30 L 415.70 426.70 L 415.50 430.80 L 415.70 434.80 L 416.30 438.70 L 417.30 442.60 L 418.80 446.20 L 420.60 449.70 L 422.80 452.90 L 425.40 455.70 L 428.30 458.20 L 431.60 460.30 L 435.30 462.00 L 443.90 464.80 L 448.30 465.60 L 452.70 465.80 L 457.10 465.50 L 461.30 464.60 L 465.50 463.30 L 473.40 459.40 L 480.70 454.00 L 487.00 447.80 L 497.50 460.20 L 504.10 464.20 L 507.60 465.60 L 511.30 466.70 L 516.30 467.50 L 521.40 467.80 L 526.60 467.40 L 531.70 466.50 L 536.60 465.10 L 541.30 463.20 L 545.80 460.80 L 549.80 457.90 L 553.50 454.60 L 555.90 451.80 L 557.90 448.80 L 559.70 445.60 L 561.00 442.20 L 562.00 438.70 L 562.50 434.90 L 562.50 431.00 L 562.00 426.70 L 559.00 430.20 L 556.50 434.10 L 549.60 446.30 L 546.90 449.90 L 544.80 452.10 L 542.30 453.90 L 536.10 457.40 L 532.70 458.70 L 529.30 459.50 L 522.30 459.80 L 518.80 459.30 L 513.50 458.10 L 508.30 456.30 L 498.50 451.60 L 497.80 445.60 L 494.20 427.60 L 504.40 424.10 L 507.70 422.70 L 509.80 421.50 L 513.20 418.60 L 514.50 416.80 L 515.50 414.70 L 517.10 409.50 L 517.30 407.50 L 517.10 405.90 L 516.40 404.30 L 515.30 403.00 L 513.90 401.90 L 511.40 400.60 L 505.20 398.90 L 496.40 397.50 L 482.00 397.10 L 477.10 397.50 L 473.90 398.10 L 470.90 399.10 L 468.20 400.40 L 464.80 403.20 L 462.30 407.40 Z" fill="#fdfdfd" fill-rule="nonzero" node-id="44" stroke="none" target-height="505.90002" target-width="663.6" target-x="164.1" target-y="104.5"></path><path d="M 134.50 568.00 L 138.00 562.30 L 146.00 551.70 L 150.50 546.70 L 156.80 540.30 L 163.40 534.30 L 170.40 528.70 L 181.20 520.70 L 192.30 513.30 L 173.50 532.00 L 134.50 568.00 Z" fill="#a26a69" fill-rule="nonzero" node-id="46" stroke="none" target-height="54.700012" target-width="57.800003" target-x="134.5" target-y="513.3"></path><path d="M 185.40 722.70 L 190.50 699.20 L 192.20 693.50 L 194.40 688.00 L 196.20 684.60 L 198.40 681.30 L 201.00 678.10 L 196.10 696.70 L 191.60 715.30 L 187.60 734.00 L 180.60 771.70 L 177.70 790.70 L 176.70 799.50 L 175.60 814.70 L 176.00 826.80 L 176.80 832.80 L 178.10 838.60 L 179.80 844.20 L 181.50 848.30 L 183.60 852.20 L 186.10 856.00 L 189.00 859.70 L 194.20 865.40 L 199.70 870.70 L 211.50 880.60 L 219.80 886.50 L 228.40 892.10 L 237.30 897.30 L 255.50 906.70 L 269.20 912.90 L 278.40 915.80 L 285.50 917.20 L 292.70 918.20 L 314.40 920.50 L 321.50 921.60 L 315.40 922.50 L 303.40 923.20 L 297.50 922.90 L 289.60 922.00 L 281.80 920.60 L 274.10 918.60 L 266.60 916.20 L 259.10 913.30 L 251.80 910.10 L 237.50 902.60 L 230.60 898.40 L 220.50 891.90 L 210.80 885.10 L 203.60 879.50 L 196.60 873.30 L 192.10 868.90 L 184.10 859.40 L 180.60 854.20 L 177.70 848.90 L 175.30 843.30 L 173.90 839.00 L 172.80 834.50 L 172.20 829.90 L 172.10 813.50 L 172.70 802.10 L 173.80 790.70 L 176.10 773.60 L 185.40 722.70 Z" fill="#a26a69" fill-rule="nonzero" node-id="48" stroke="none" target-height="245.10004" target-width="149.4" target-x="172.1" target-y="678.1"></path><path d="M 130.90 571.90 L 135.60 570.30 L 130.70 578.20 L 128.50 582.50 L 125.20 591.30 L 123.30 600.60 L 123.00 605.20 L 123.10 609.90 L 123.70 614.50 L 124.90 619.00 L 126.60 623.50 L 130.30 628.70 L 134.40 633.50 L 138.90 638.00 L 148.70 645.90 L 154.00 649.50 L 162.20 654.30 L 170.80 658.60 L 188.30 666.10 L 205.00 671.40 L 221.80 676.20 L 238.70 680.50 L 272.90 688.00 L 290.10 691.10 L 283.00 691.20 L 275.90 690.90 L 268.90 690.20 L 258.40 688.50 L 248.10 686.20 L 237.70 683.50 L 207.00 674.80 L 195.60 671.10 L 176.60 663.80 L 161.90 656.70 L 154.90 652.60 L 148.20 648.20 L 141.80 643.20 L 137.30 639.30 L 133.10 635.00 L 129.10 630.30 L 125.40 625.40 L 123.60 622.20 L 121.20 615.60 L 120.60 612.20 L 120.30 607.70 L 120.40 603.10 L 121.10 598.40 L 123.40 589.20 L 125.10 584.70 L 130.90 571.90 Z" fill="#facfd1" fill-rule="nonzero" node-id="50" stroke="none" target-height="120.900024" target-width="169.8" target-x="120.3" target-y="570.3"></path><path d="M 811.10 645.60 L 814.90 642.20 L 818.30 638.70 L 821.30 634.80 L 825.30 628.60 L 828.90 622.10 L 835.30 608.70 L 834.30 613.80 L 833.00 618.60 L 831.20 623.10 L 829.00 627.50 L 825.60 633.00 L 821.60 638.20 L 817.20 643.10 L 807.40 652.10 L 793.90 662.00 L 785.70 667.40 L 776.60 672.50 L 757.80 682.10 L 748.10 686.50 L 738.40 690.40 L 728.40 694.00 L 718.40 697.10 L 708.20 699.60 L 697.80 701.60 L 712.90 696.70 L 737.80 687.60 L 757.30 679.20 L 766.90 674.50 L 776.20 669.50 L 785.30 664.20 L 794.20 658.40 L 802.80 652.20 L 811.10 645.60 Z" fill="#facfd1" fill-rule="nonzero" node-id="52" stroke="none" target-height="92.89996" target-width="137.5" target-x="697.8" target-y="608.7"></path><path d="M 589.50 309.20 L 593.40 306.90 L 597.40 305.00 L 601.50 303.50 L 605.70 302.40 L 611.40 301.50 L 617.20 301.10 L 623.10 301.20 L 629.00 301.90 L 634.90 302.90 L 640.70 304.40 L 651.90 308.30 L 662.60 313.20 L 667.90 316.20 L 677.80 323.10 L 682.40 327.10 L 690.90 335.70 L 698.30 345.40 L 701.50 350.50 L 707.00 361.30 L 709.20 367.00 L 712.50 378.50 L 713.60 384.50 L 714.20 390.50 L 714.40 396.50 L 714.20 402.60 L 713.50 408.70 L 709.20 418.00 L 706.50 422.50 L 703.50 426.80 L 700.20 430.70 L 696.60 434.20 L 693.60 436.60 L 687.00 440.50 L 683.30 442.00 L 677.10 443.80 L 670.80 445.00 L 664.50 445.80 L 658.00 446.10 L 651.60 446.00 L 645.20 445.40 L 638.90 444.40 L 632.60 442.90 L 626.40 441.10 L 620.30 438.90 L 614.50 436.30 L 608.80 433.30 L 603.30 429.50 L 598.30 425.40 L 593.70 420.70 L 589.50 415.80 L 585.60 410.50 L 582.20 404.90 L 576.40 393.10 L 574.00 386.90 L 572.00 380.60 L 569.00 368.00 L 568.20 362.60 L 567.80 357.10 L 567.90 351.60 L 568.40 346.10 L 569.30 340.70 L 570.70 335.40 L 572.60 330.20 L 574.90 325.30 L 577.80 320.70 L 580.30 317.50 L 586.10 311.80 L 589.50 309.20 Z M 604.90 372.40 L 616.50 382.90 L 622.50 386.80 L 624.40 387.30 L 626.50 387.30 L 628.40 386.80 L 630.50 385.30 L 631.50 383.30 L 631.40 382.00 L 630.20 377.50 L 629.00 374.90 L 627.40 372.60 L 625.30 370.60 L 623.10 369.10 L 620.50 368.00 L 617.80 367.30 L 615.10 367.20 L 612.30 367.60 L 608.50 369.20 L 604.90 372.40 Z" fill="#301a27" fill-rule="nonzero" node-id="54" stroke="none" target-height="145" target-width="146.60004" target-x="567.8" target-y="301.1"></path><path d="M 604.90 372.40 L 606.60 370.60 L 610.30 368.20 L 612.30 367.60 L 615.10 367.20 L 617.80 367.30 L 620.50 368.00 L 623.10 369.10 L 625.30 370.60 L 627.40 372.60 L 629.00 374.90 L 630.20 377.50 L 631.40 382.00 L 631.50 383.30 L 630.50 385.30 L 628.40 386.80 L 626.50 387.30 L 624.40 387.30 L 622.50 386.80 L 616.50 382.90 L 604.90 372.40 Z" fill="#fefdfe" fill-rule="nonzero" node-id="56" stroke="none" target-height="20.099976" target-width="26.599976" target-x="604.9" target-y="367.2"></path><path d="M 360.70 371.10 L 364.90 370.00 L 367.80 370.60 L 369.80 372.40 L 370.80 375.00 L 370.80 376.50 L 370.50 378.90 L 369.50 381.30 L 368.50 382.70 L 365.60 385.20 L 364.00 387.00 L 361.70 388.80 L 359.00 390.30 L 356.10 391.40 L 353.20 392.00 L 350.50 392.10 L 348.80 391.80 L 346.30 390.30 L 345.50 389.10 L 345.10 387.40 L 345.10 385.10 L 346.90 382.00 L 349.00 379.10 L 351.50 376.60 L 354.40 374.30 L 357.40 372.50 L 360.70 371.10 Z" fill="#fefdfe" fill-rule="nonzero" node-id="58" stroke="none" target-height="22.100006" target-width="25.699982" target-x="345.1" target-y="370"></path><path d="M 799.50 706.70 L 798.50 703.10 L 799.10 698.90 L 800.00 696.50 L 805.10 687.10 L 812.60 733.60 L 816.10 757.00 L 819.00 780.40 L 810.20 790.00 L 808.10 769.10 L 805.60 748.20 L 799.50 706.70 Z" fill="#2e1923" fill-rule="nonzero" node-id="60" stroke="none" target-height="102.900024" target-width="20.5" target-x="798.5" target-y="687.1"></path><path d="M 276.10 727.40 L 284.40 720.00 L 293.50 728.70 L 300.30 731.90 L 314.10 737.30 L 324.70 740.70 L 346.30 746.10 L 357.20 748.40 L 376.20 751.80 L 395.30 754.60 L 414.40 756.90 L 433.70 758.70 L 453.00 760.00 L 472.20 760.80 L 491.60 761.10 L 530.60 760.70 L 550.30 759.80 L 570.00 758.50 L 584.70 757.20 L 614.10 753.40 L 628.70 751.00 L 643.20 748.10 L 657.50 744.70 L 671.80 740.80 L 686.00 736.50 L 695.30 740.20 L 685.20 744.20 L 675.00 747.90 L 664.70 751.10 L 654.30 753.90 L 640.20 757.20 L 626.10 760.00 L 611.80 762.20 L 597.50 764.00 L 568.70 766.60 L 525.50 768.90 L 484.00 769.10 L 463.20 768.60 L 442.40 767.60 L 421.70 766.10 L 401.00 764.00 L 385.60 761.90 L 370.20 759.50 L 354.90 756.60 L 339.60 753.20 L 328.40 750.60 L 317.30 747.60 L 302.80 742.40 L 295.80 739.40 L 289.00 735.90 L 282.50 731.90 L 276.10 727.40 Z" fill="#2e1923" fill-rule="nonzero" node-id="62" stroke="none" target-height="49.099976" target-width="419.19998" target-x="276.1" target-y="720"></path><path d="M 539.50 455.50 L 542.30 453.90 L 544.80 452.10 L 546.90 449.90 L 549.60 446.30 L 556.50 434.10 L 559.00 430.20 L 562.00 426.70 L 562.50 431.00 L 562.50 434.90 L 562.00 438.70 L 561.00 442.20 L 559.70 445.60 L 557.90 448.80 L 555.90 451.80 L 553.50 454.60 L 549.80 457.90 L 545.80 460.80 L 541.30 463.20 L 536.60 465.10 L 531.70 466.50 L 526.60 467.40 L 521.40 467.80 L 516.30 467.50 L 511.30 466.70 L 507.60 465.60 L 500.70 462.40 L 497.50 460.20 L 498.50 451.60 L 508.30 456.30 L 513.50 458.10 L 518.80 459.30 L 522.30 459.80 L 529.30 459.50 L 532.70 458.70 L 536.10 457.40 L 539.50 455.50 Z" fill="#2f1724" fill-rule="nonzero" node-id="64" stroke="none" target-height="41.099976" target-width="65" target-x="497.5" target-y="426.7"></path><path d="M 668.80 121.40 L 672.60 116.70 L 676.70 112.30 L 681.00 108.20 L 685.60 104.50 L 695.40 97.90 L 706.10 92.70 L 713.50 90.00 L 721.00 87.90 L 728.80 86.30 L 736.70 85.40 L 744.60 85.00 L 752.60 85.20 L 760.50 86.10 L 768.30 87.50 L 775.90 89.50 L 783.00 91.90 L 789.80 94.70 L 796.20 98.10 L 802.40 101.90 L 808.30 106.20 L 813.90 110.90 L 819.10 115.90 L 824.00 121.40 L 828.60 127.10 L 832.70 133.10 L 836.50 139.40 L 839.90 145.90 L 842.90 152.70 L 845.40 159.50 L 847.50 166.50 L 849.20 173.70 L 850.40 180.90 L 851.10 188.20 L 851.30 195.40 L 851.00 202.70 L 850.20 210.00 L 848.80 217.10 L 846.90 224.20 L 841.90 237.20 L 838.90 242.90 L 835.40 248.30 L 831.50 253.30 L 827.20 258.20 L 822.60 262.80 L 815.40 269.30 L 807.90 275.30 L 813.90 291.40 L 819.30 307.70 L 824.20 324.20 L 827.50 336.70 L 830.20 349.30 L 832.50 361.90 L 834.40 374.70 L 835.80 387.50 L 836.50 400.30 L 836.70 413.20 L 836.20 426.10 L 932.10 318.90 L 936.60 314.60 L 941.50 310.70 L 946.70 307.30 L 952.20 304.30 L 958.00 301.80 L 963.60 303.70 L 969.20 306.20 L 976.20 310.50 L 979.30 313.00 L 982.20 315.80 L 984.70 318.90 L 986.80 322.20 L 988.40 325.80 L 989.50 329.70 L 990.00 333.90 L 987.20 338.80 L 983.80 343.30 L 976.20 351.60 L 894.20 428.30 L 865.70 455.80 L 864.10 459.00 L 863.60 461.80 L 864.30 473.70 L 863.50 486.40 L 862.70 491.20 L 861.40 495.90 L 859.30 502.00 L 856.60 508.00 L 853.40 513.70 L 846.00 524.70 L 835.20 537.30 L 828.50 544.30 L 834.80 556.70 L 837.50 563.20 L 839.80 569.80 L 841.70 576.50 L 843.20 583.30 L 844.20 590.20 L 844.70 597.10 L 844.60 604.10 L 843.30 614.40 L 842.20 619.50 L 840.60 624.60 L 838.70 629.30 L 836.40 633.80 L 833.80 637.90 L 827.60 645.60 L 818.50 654.20 L 812.60 658.90 L 800.50 667.60 L 801.40 669.50 L 802.60 675.10 L 802.50 681.10 L 802.00 683.40 L 801.40 684.80 L 800.60 685.50 L 799.70 685.90 L 798.70 685.80 L 797.30 685.10 L 795.50 683.40 L 793.90 674.30 L 791.90 673.80 L 792.70 690.30 L 794.10 695.60 L 795.30 698.10 L 797.60 708.80 L 801.40 730.40 L 803.50 746.80 L 809.00 796.00 L 810.00 825.20 L 809.40 841.70 L 807.40 854.50 L 805.80 860.80 L 803.70 866.80 L 801.00 872.50 L 798.70 876.60 L 795.90 880.60 L 792.70 884.40 L 789.00 888.00 L 781.60 892.40 L 774.10 896.30 L 766.50 899.80 L 758.70 903.00 L 750.70 905.70 L 740.60 908.50 L 730.30 910.80 L 720.00 912.50 L 709.40 913.70 L 698.90 914.40 L 688.30 914.60 L 677.70 914.40 L 667.20 913.70 L 669.40 925.20 L 664.70 922.40 L 656.00 916.10 L 648.10 908.70 L 644.40 904.70 L 642.40 908.40 L 640.00 911.70 L 637.30 914.70 L 634.30 917.30 L 630.90 919.60 L 627.40 921.50 L 623.50 922.90 L 619.40 923.90 L 605.00 927.30 L 590.50 930.20 L 575.90 932.70 L 561.30 934.70 L 541.70 936.80 L 522.00 938.30 L 502.30 939.10 L 482.60 939.40 L 462.80 939.20 L 443.10 938.50 L 442.40 929.90 L 458.60 931.10 L 474.80 931.70 L 491.00 931.90 L 507.20 931.50 L 523.40 930.70 L 539.60 929.40 L 555.70 927.70 L 571.80 925.50 L 587.80 922.80 L 610.00 918.40 L 616.20 916.50 L 622.10 914.00 L 627.90 911.10 L 633.40 907.90 L 638.80 904.30 L 632.90 889.70 L 600.50 895.50 L 567.90 899.90 L 551.50 901.50 L 535.10 902.70 L 518.60 903.40 L 502.20 903.80 L 485.70 903.60 L 469.30 903.00 L 453.00 901.90 L 436.60 900.20 L 420.30 898.10 L 404.10 895.40 L 388.00 892.10 L 371.90 888.30 L 372.20 906.30 L 372.80 909.80 L 373.80 913.20 L 375.40 916.50 L 382.40 919.20 L 389.50 921.50 L 396.80 923.40 L 407.80 925.50 L 441.30 929.80 L 441.70 936.90 L 411.10 933.50 L 389.80 929.40 L 382.90 927.50 L 378.50 925.80 L 374.20 923.70 L 370.20 921.20 L 366.60 915.50 L 363.40 909.60 L 357.50 897.50 L 361.80 889.60 L 365.70 881.50 L 369.00 873.20 L 372.00 864.70 L 363.50 880.90 L 359.40 890.10 L 357.60 897.70 L 357.30 901.60 L 357.60 905.60 L 358.50 909.80 L 355.20 908.20 L 352.10 907.30 L 349.10 907.00 L 346.10 907.30 L 343.20 907.90 L 340.30 908.90 L 336.00 910.90 L 323.90 918.80 L 335.80 913.40 L 347.40 907.30 L 356.40 913.00 L 339.60 922.10 L 328.10 927.40 L 322.20 929.50 L 314.00 931.40 L 302.90 932.10 L 296.20 931.90 L 289.60 931.20 L 276.60 928.30 L 270.20 926.40 L 260.70 922.90 L 251.50 918.80 L 233.50 909.80 L 215.60 898.70 L 206.80 892.60 L 198.40 886.20 L 193.00 881.60 L 183.10 871.70 L 178.60 866.40 L 174.50 860.70 L 170.80 854.60 L 168.20 849.40 L 166.10 844.20 L 164.50 838.80 L 163.40 833.30 L 162.30 822.10 L 162.30 813.60 L 162.80 805.10 L 165.10 788.30 L 175.60 733.10 L 179.40 714.80 L 183.60 696.60 L 188.40 678.50 L 178.20 674.40 L 161.40 666.60 L 148.40 659.30 L 142.30 655.20 L 136.40 650.80 L 130.80 646.00 L 126.90 642.20 L 119.90 633.70 L 116.70 629.00 L 114.30 624.90 L 112.40 620.60 L 111.20 616.10 L 110.40 611.60 L 110.00 606.90 L 110.10 602.20 L 111.50 592.90 L 112.80 588.40 L 114.40 583.90 L 118.30 575.50 L 122.40 568.40 L 126.90 561.80 L 131.80 555.50 L 137.10 549.50 L 148.50 538.20 L 157.60 530.30 L 185.80 507.50 L 180.50 500.90 L 175.80 494.10 L 171.70 487.00 L 168.00 479.70 L 164.90 472.10 L 162.10 464.40 L 159.90 456.50 L 158.00 448.50 L 156.20 437.60 L 154.90 426.70 L 154.30 415.60 L 154.20 404.50 L 154.60 393.50 L 157.00 368.90 L 159.10 355.20 L 161.60 341.70 L 164.70 328.20 L 168.40 314.80 L 172.60 301.70 L 177.40 288.70 L 182.90 276.00 L 178.60 273.10 L 170.80 266.40 L 167.20 262.60 L 162.90 257.30 L 159.10 251.70 L 155.80 245.70 L 153.00 239.50 L 150.60 233.00 L 148.80 226.40 L 147.50 219.60 L 146.70 212.80 L 146.40 206.00 L 147.20 198.00 L 148.50 190.30 L 150.50 182.80 L 153.10 175.60 L 156.20 168.50 L 159.80 161.70 L 163.90 155.10 L 168.50 148.80 L 173.50 142.90 L 178.90 137.20 L 184.70 131.90 L 190.80 127.00 L 197.20 122.40 L 203.90 118.30 L 210.80 114.50 L 217.90 111.20 L 225.20 108.30 L 232.70 106.00 L 240.20 104.10 L 247.90 102.70 L 255.60 101.80 L 263.40 101.50 L 271.10 101.80 L 278.80 102.60 L 293.50 111.50 L 285.40 110.90 L 277.30 110.80 L 269.20 111.10 L 261.10 112.00 L 253.00 113.40 L 245.10 115.30 L 237.40 117.70 L 229.80 120.60 L 222.40 123.90 L 215.40 127.80 L 208.60 132.20 L 202.20 137.00 L 197.30 141.20 L 192.80 145.80 L 188.50 150.60 L 184.50 155.80 L 177.00 167.40 L 173.90 173.60 L 171.40 180.00 L 169.30 186.60 L 167.80 193.40 L 166.80 200.20 L 166.30 207.20 L 166.20 214.10 L 167.20 228.10 L 169.70 241.80 L 171.50 205.60 L 173.10 193.70 L 174.40 187.90 L 176.10 182.20 L 178.30 176.60 L 184.20 165.40 L 187.80 160.00 L 191.70 154.90 L 195.90 150.10 L 200.50 145.50 L 205.40 141.30 L 210.50 137.40 L 215.90 133.80 L 227.30 127.60 L 233.20 125.00 L 245.50 120.90 L 251.80 119.40 L 264.50 117.50 L 269.20 117.20 L 273.80 117.30 L 278.20 117.80 L 287.00 120.00 L 291.30 121.60 L 297.60 124.30 L 315.90 133.50 L 302.80 114.30 L 310.40 115.70 L 317.50 121.30 L 324.40 127.40 L 341.00 121.60 L 357.70 116.30 L 374.60 111.70 L 391.70 107.60 L 408.90 104.10 L 426.20 101.20 L 443.50 98.90 L 461.00 97.20 L 478.60 96.00 L 496.10 95.40 L 513.60 95.40 L 531.20 96.00 L 548.70 97.20 L 566.20 98.90 L 583.60 101.20 L 600.90 104.10 L 618.10 107.60 L 635.20 111.60 L 652.10 116.20 L 668.80 121.40 Z M 676.40 128.50 L 683.90 125.00 L 691.20 120.90 L 696.40 117.50 L 701.90 114.40 L 707.50 111.90 L 713.30 109.80 L 719.30 108.10 L 725.40 106.80 L 731.50 105.90 L 737.80 105.50 L 744.10 105.50 L 756.50 106.60 L 768.80 109.40 L 774.70 111.30 L 780.50 113.60 L 786.20 116.30 L 791.70 119.40 L 796.80 122.80 L 801.80 126.50 L 806.40 130.60 L 810.80 135.10 L 814.80 139.90 L 818.40 145.00 L 825.00 156.80 L 827.80 163.20 L 830.00 169.80 L 831.50 176.40 L 832.50 183.20 L 833.00 190.00 L 833.00 196.80 L 832.60 203.80 L 830.30 217.40 L 826.50 230.90 L 823.20 239.70 L 819.50 248.10 L 815.30 256.20 L 822.40 248.70 L 828.10 240.30 L 831.30 234.30 L 833.90 228.10 L 836.10 221.60 L 837.70 214.90 L 838.90 208.10 L 839.60 201.30 L 839.90 194.30 L 839.80 187.50 L 839.30 180.80 L 838.00 173.60 L 836.20 166.60 L 833.80 159.80 L 830.80 153.30 L 827.30 146.90 L 823.40 141.00 L 819.00 135.30 L 814.20 129.90 L 809.00 124.80 L 803.50 120.20 L 797.70 115.90 L 791.60 112.00 L 785.20 108.50 L 778.60 105.50 L 771.80 103.00 L 764.90 101.00 L 757.80 99.40 L 750.70 98.40 L 743.50 98.00 L 736.20 98.10 L 728.70 99.10 L 721.20 100.70 L 713.70 102.80 L 703.00 107.00 L 693.00 112.70 L 688.40 116.00 L 684.10 119.80 L 680.10 123.90 L 676.40 128.50 Z M 353.50 126.90 L 343.00 130.30 L 332.80 134.20 L 322.80 138.60 L 313.10 143.50 L 303.60 149.00 L 294.40 154.90 L 285.60 161.30 L 277.10 168.20 L 268.90 175.50 L 259.20 184.80 L 249.90 194.40 L 240.70 204.40 L 232.00 214.70 L 223.60 225.30 L 215.70 236.20 L 210.10 244.60 L 204.80 253.20 L 195.10 270.90 L 190.80 280.00 L 186.90 289.30 L 183.30 298.80 L 176.60 320.90 L 173.30 333.40 L 170.40 346.20 L 168.00 359.00 L 166.10 371.90 L 164.80 384.80 L 164.10 394.60 L 164.10 414.00 L 164.60 423.80 L 165.50 433.40 L 167.00 443.00 L 168.90 452.60 L 171.20 462.10 L 173.60 469.10 L 176.30 475.80 L 179.60 482.20 L 183.30 488.20 L 187.50 494.00 L 192.00 499.50 L 196.90 504.80 L 202.10 509.70 L 209.50 515.80 L 217.30 521.50 L 225.50 526.60 L 234.00 531.20 L 242.70 535.40 L 271.40 547.00 L 291.20 555.40 L 317.10 567.60 L 329.80 574.10 L 342.40 580.90 L 354.70 588.20 L 366.80 595.90 L 373.70 601.70 L 380.20 607.80 L 386.20 614.30 L 391.80 621.10 L 396.00 626.90 L 399.80 632.90 L 403.20 639.10 L 406.30 645.50 L 409.10 652.10 L 422.30 649.40 L 435.60 647.10 L 448.90 645.40 L 462.30 644.10 L 475.80 643.50 L 489.30 643.50 L 502.70 644.10 L 516.20 645.40 L 530.00 645.00 L 543.80 645.00 L 557.50 645.40 L 571.30 646.30 L 585.00 647.70 L 598.70 649.70 L 602.00 642.10 L 605.80 634.80 L 609.90 627.70 L 616.70 617.40 L 624.00 607.40 L 633.80 599.00 L 644.00 591.10 L 654.60 583.70 L 665.30 576.60 L 687.40 563.10 L 724.80 542.50 L 730.90 538.20 L 735.10 534.50 L 739.10 530.40 L 753.60 512.90 L 761.50 503.60 L 769.80 494.70 L 803.80 459.80 L 812.00 450.80 L 819.90 441.60 L 823.30 436.70 L 824.60 434.10 L 825.90 430.00 L 826.90 425.60 L 827.70 416.90 L 827.40 403.50 L 826.60 390.30 L 825.30 377.10 L 823.40 364.00 L 821.10 351.00 L 818.20 338.00 L 814.90 325.20 L 811.10 312.50 L 806.80 300.00 L 802.00 287.60 L 796.80 275.40 L 791.20 263.40 L 785.10 251.60 L 778.60 240.10 L 771.70 228.70 L 764.30 217.70 L 754.60 205.00 L 744.30 192.50 L 737.10 184.40 L 721.90 169.00 L 713.90 161.80 L 705.60 155.00 L 697.00 148.50 L 688.10 142.60 L 678.90 137.20 L 669.30 132.30 L 662.00 129.00 L 654.50 126.10 L 646.70 123.60 L 638.80 121.50 L 621.20 117.30 L 603.60 113.70 L 585.80 110.70 L 567.90 108.20 L 549.90 106.40 L 531.90 105.20 L 513.80 104.50 L 495.70 104.50 L 477.60 105.10 L 459.60 106.30 L 441.70 108.20 L 423.80 110.70 L 409.50 113.10 L 395.40 115.90 L 381.30 119.20 L 367.40 122.80 L 353.50 126.90 Z M 936.40 327.10 L 911.70 355.00 L 886.60 382.60 L 861.20 410.00 L 835.60 437.00 L 824.50 449.20 L 779.10 496.60 L 768.00 508.70 L 757.20 521.00 L 746.70 533.70 L 771.70 530.10 L 784.00 527.60 L 790.90 521.50 L 803.90 508.70 L 831.90 478.30 L 856.00 453.50 L 870.90 438.80 L 908.80 402.90 L 954.70 360.10 L 979.20 336.60 L 980.40 334.90 L 981.00 333.20 L 981.20 331.40 L 980.40 327.70 L 978.90 325.10 L 976.90 322.60 L 971.90 318.10 L 964.50 313.50 L 962.40 312.60 L 958.20 312.10 L 955.50 312.60 L 952.80 313.50 L 950.10 314.90 L 946.30 317.60 L 942.70 320.70 L 936.40 327.10 Z M 797.00 530.70 L 803.30 534.10 L 806.00 536.20 L 809.60 539.80 L 812.90 543.90 L 815.90 548.30 L 824.40 562.00 L 827.40 566.40 L 830.70 570.40 L 827.90 562.40 L 822.80 553.10 L 819.10 547.90 L 810.90 538.10 L 819.40 534.90 L 827.00 530.30 L 831.70 526.60 L 836.00 522.40 L 839.90 517.80 L 843.40 512.80 L 846.50 507.60 L 849.20 502.00 L 851.40 496.20 L 853.10 490.40 L 854.40 484.40 L 855.20 478.30 L 855.40 472.30 L 855.20 466.40 L 847.40 474.00 L 840.10 481.90 L 812.10 515.00 L 804.70 523.00 L 797.00 530.70 Z M 134.50 568.00 L 173.50 532.00 L 192.30 513.30 L 181.20 520.70 L 170.40 528.70 L 163.40 534.30 L 156.80 540.30 L 150.50 546.70 L 146.00 551.70 L 138.00 562.30 L 134.50 568.00 Z M 130.90 571.90 L 125.10 584.70 L 123.40 589.20 L 121.10 598.40 L 120.40 603.10 L 120.30 607.70 L 120.60 612.20 L 121.20 615.60 L 123.60 622.20 L 125.40 625.40 L 129.10 630.30 L 133.10 635.00 L 137.30 639.30 L 141.80 643.20 L 148.20 648.20 L 154.90 652.60 L 161.90 656.70 L 176.50 663.80 L 195.60 671.10 L 207.00 674.80 L 237.70 683.50 L 248.10 686.20 L 258.40 688.50 L 268.90 690.20 L 275.90 690.90 L 283.00 691.20 L 290.10 691.10 L 272.90 688.00 L 238.70 680.50 L 221.80 676.20 L 205.00 671.40 L 188.30 666.10 L 170.80 658.60 L 162.20 654.30 L 154.00 649.50 L 148.70 645.90 L 138.90 638.00 L 134.40 633.50 L 130.30 628.70 L 126.60 623.50 L 124.90 619.00 L 123.70 614.50 L 123.10 609.90 L 123.00 605.20 L 123.30 600.60 L 125.20 591.30 L 128.50 582.50 L 130.70 578.20 L 135.60 570.30 L 130.90 571.90 Z M 811.10 645.60 L 802.80 652.20 L 794.20 658.40 L 785.30 664.20 L 776.20 669.50 L 766.90 674.50 L 757.30 679.20 L 737.80 687.60 L 712.90 696.70 L 697.80 701.60 L 708.20 699.60 L 718.40 697.10 L 728.40 694.00 L 738.40 690.40 L 748.10 686.50 L 757.80 682.10 L 776.60 672.50 L 785.70 667.40 L 793.90 662.00 L 807.40 652.10 L 817.20 643.10 L 821.60 638.20 L 825.60 633.00 L 829.00 627.50 L 831.20 623.10 L 833.00 618.60 L 834.30 613.80 L 835.30 608.70 L 828.80 622.10 L 825.30 628.60 L 821.30 634.80 L 818.30 638.70 L 814.90 642.20 L 811.10 645.60 Z M 413.40 660.80 L 405.20 677.80 L 427.10 677.00 L 432.80 664.00 L 437.20 663.30 L 433.00 685.90 L 422.90 684.80 L 412.70 684.20 L 407.60 684.50 L 402.60 685.20 L 395.80 690.10 L 389.40 695.60 L 377.20 707.10 L 394.00 704.30 L 410.70 700.90 L 427.30 696.90 L 441.80 702.50 L 449.10 705.00 L 461.60 708.30 L 471.90 709.80 L 486.80 698.70 L 489.50 697.10 L 494.70 694.80 L 497.30 694.20 L 500.00 694.10 L 502.60 694.60 L 506.40 696.40 L 510.50 700.20 L 501.50 706.00 L 499.50 697.30 L 489.30 703.60 L 476.40 718.20 L 467.90 716.70 L 459.50 714.60 L 426.40 705.30 L 420.90 704.70 L 415.60 704.70 L 410.40 705.20 L 400.00 707.20 L 387.20 711.10 L 364.40 718.90 L 356.80 720.40 L 347.20 720.70 L 324.10 718.70 L 318.30 718.60 L 312.00 720.80 L 293.50 728.70 L 302.30 717.20 L 311.70 706.20 L 283.90 699.20 L 282.10 703.60 L 275.80 716.60 L 274.00 721.00 L 272.80 725.60 L 275.40 735.00 L 284.60 773.90 L 289.60 789.70 L 294.90 801.60 L 298.20 807.30 L 302.00 812.80 L 310.70 823.00 L 320.30 831.80 L 325.40 835.70 L 332.50 840.40 L 339.90 844.70 L 347.60 848.60 L 355.50 852.00 L 371.90 857.80 L 384.40 861.30 L 397.10 864.40 L 422.40 869.50 L 439.10 872.00 L 455.80 873.80 L 472.70 875.20 L 489.70 876.00 L 506.70 876.20 L 523.60 875.80 L 540.60 874.80 L 557.40 873.10 L 570.90 871.30 L 584.20 869.00 L 597.50 866.30 L 610.60 863.10 L 623.60 859.50 L 636.50 855.40 L 649.20 850.80 L 661.70 845.70 L 674.00 840.10 L 686.20 834.00 L 691.60 830.70 L 696.50 827.10 L 701.00 823.20 L 705.00 818.90 L 708.60 814.20 L 711.80 809.30 L 714.60 804.20 L 717.00 798.80 L 720.50 787.50 L 722.60 775.70 L 723.20 767.60 L 723.10 759.60 L 722.40 751.50 L 721.10 743.50 L 719.20 735.80 L 716.80 728.40 L 700.80 737.50 L 695.30 740.20 L 686.00 736.50 L 701.50 727.60 L 687.30 713.20 L 665.40 711.40 L 670.10 709.70 L 679.80 707.60 L 694.70 706.40 L 693.90 701.60 L 664.10 704.10 L 656.60 704.40 L 645.50 704.00 L 638.50 702.50 L 633.40 700.70 L 628.50 698.50 L 609.20 688.80 L 611.80 692.00 L 617.40 697.40 L 624.90 702.10 L 629.60 704.30 L 634.50 706.10 L 642.00 708.20 L 649.70 709.90 L 665.10 712.60 L 652.10 720.10 L 643.90 717.80 L 627.80 712.00 L 620.00 708.50 L 612.40 704.60 L 605.00 700.30 L 600.50 701.70 L 596.00 702.40 L 591.50 702.70 L 587.00 702.50 L 578.10 701.00 L 564.80 697.30 L 557.00 708.60 L 573.10 709.80 L 573.50 714.20 L 568.50 714.80 L 558.80 717.00 L 530.50 726.50 L 517.60 725.80 L 511.20 725.00 L 504.80 723.80 L 492.30 720.60 L 492.20 718.00 L 492.60 715.80 L 493.40 713.90 L 494.70 712.20 L 496.50 710.60 L 499.00 709.20 L 507.90 713.70 L 526.40 721.40 L 548.90 712.10 L 550.50 709.40 L 555.20 700.10 L 557.00 697.20 L 559.20 694.90 L 560.80 693.70 L 562.70 692.90 L 565.00 692.40 L 582.50 695.80 L 591.30 697.00 L 600.20 697.70 L 598.20 691.40 L 596.80 685.00 L 595.70 678.60 L 595.20 672.10 L 595.10 665.50 L 595.50 658.90 L 590.40 659.50 L 580.20 659.80 L 570.10 658.70 L 565.00 657.70 L 563.00 663.30 L 561.50 665.90 L 559.60 668.20 L 557.50 670.00 L 555.10 671.40 L 551.10 672.40 L 548.80 672.30 L 546.40 671.80 L 551.00 664.00 L 553.10 660.00 L 554.70 655.70 L 541.80 653.90 L 545.20 663.90 L 532.30 665.30 L 531.80 661.90 L 530.80 659.20 L 529.50 657.10 L 527.70 655.40 L 525.60 654.10 L 522.90 653.30 L 519.60 652.90 L 527.90 669.10 L 531.30 670.20 L 534.50 671.70 L 537.30 673.70 L 539.80 676.10 L 537.00 677.10 L 534.60 677.60 L 532.50 677.50 L 530.50 677.10 L 526.80 675.20 L 524.40 673.10 L 515.50 662.50 L 513.20 660.30 L 511.50 659.10 L 507.80 657.70 L 505.90 657.60 L 503.70 657.90 L 501.10 658.80 L 496.30 661.90 L 491.50 664.50 L 488.20 665.80 L 484.90 666.60 L 481.50 666.90 L 479.00 666.80 L 473.70 665.30 L 470.90 663.90 L 463.90 669.90 L 446.90 661.90 L 458.10 655.40 L 462.60 657.10 L 467.20 658.30 L 472.00 659.00 L 480.00 659.60 L 484.10 659.00 L 486.10 658.30 L 488.50 656.90 L 489.10 655.50 L 488.90 654.80 L 486.80 652.80 L 482.20 652.00 L 477.50 651.80 L 472.80 652.00 L 468.10 652.70 L 459.00 654.90 L 451.30 654.90 L 443.60 655.30 L 436.00 656.20 L 420.90 659.00 L 413.40 660.80 Z M 185.40 722.70 L 176.10 773.60 L 173.80 790.70 L 172.70 802.10 L 172.10 813.50 L 172.20 829.90 L 172.80 834.50 L 173.90 839.00 L 175.30 843.30 L 177.70 848.90 L 180.60 854.20 L 184.10 859.40 L 192.10 868.90 L 196.60 873.30 L 203.60 879.50 L 210.80 885.10 L 220.50 891.90 L 230.60 898.40 L 237.50 902.60 L 251.80 910.10 L 259.10 913.30 L 266.60 916.20 L 274.10 918.60 L 281.80 920.60 L 289.60 922.00 L 297.40 922.90 L 303.40 923.20 L 315.40 922.50 L 321.50 921.60 L 314.40 920.50 L 292.70 918.20 L 285.50 917.20 L 278.40 915.80 L 269.20 912.90 L 255.50 906.70 L 237.30 897.30 L 228.40 892.10 L 219.80 886.50 L 211.50 880.60 L 199.70 870.70 L 194.20 865.40 L 189.00 859.70 L 186.10 856.00 L 183.60 852.20 L 181.50 848.30 L 179.80 844.20 L 178.10 838.60 L 176.80 832.80 L 176.00 826.80 L 175.60 814.70 L 176.70 799.50 L 177.70 790.70 L 180.60 771.70 L 187.60 734.00 L 191.60 715.30 L 196.10 696.70 L 201.00 678.10 L 198.40 681.30 L 196.20 684.60 L 194.40 688.00 L 192.20 693.50 L 190.50 699.20 L 185.40 722.70 Z M 289.40 691.30 L 293.60 694.00 L 298.00 696.20 L 302.40 698.10 L 306.90 699.50 L 313.10 700.90 L 319.50 701.90 L 326.00 702.40 L 335.80 702.40 L 345.60 701.90 L 364.90 700.20 L 289.40 691.30 Z M 369.80 693.30 L 372.20 692.00 L 374.90 691.50 L 375.80 691.80 L 376.30 692.30 L 376.50 693.10 L 376.40 694.60 L 375.70 696.20 L 374.80 697.60 L 372.90 698.90 L 371.30 698.30 L 370.80 697.50 L 369.80 693.30 Z M 324.30 708.40 L 329.40 710.40 L 334.60 711.90 L 340.00 712.90 L 345.40 713.40 L 350.80 713.40 L 356.30 713.00 L 361.60 712.00 L 366.80 710.50 L 371.90 708.40 L 360.00 707.50 L 348.10 707.10 L 336.20 707.40 L 324.30 708.40 Z M 698.40 713.10 L 697.90 716.10 L 697.90 718.20 L 698.50 719.60 L 699.40 720.60 L 700.80 721.20 L 702.90 721.40 L 706.00 721.00 L 706.50 718.00 L 706.40 715.90 L 705.90 714.50 L 705.00 713.50 L 703.60 712.90 L 701.50 712.70 L 698.40 713.10 Z M 376.50 869.80 L 377.20 882.70 L 392.80 886.50 L 408.40 889.80 L 424.20 892.50 L 440.00 894.50 L 455.90 896.00 L 471.80 897.10 L 487.80 897.60 L 503.80 897.60 L 535.80 896.40 L 567.70 893.60 L 589.00 891.00 L 610.10 888.00 L 631.00 884.50 L 624.10 869.50 L 608.80 873.30 L 593.60 876.60 L 578.20 879.30 L 562.70 881.50 L 547.20 883.20 L 531.60 884.40 L 516.00 885.10 L 500.40 885.20 L 484.70 884.90 L 469.10 884.20 L 453.60 882.90 L 438.00 881.20 L 422.50 879.00 L 407.10 876.40 L 391.80 873.30 L 376.50 869.80 Z M 632.40 865.90 L 633.60 872.60 L 635.40 879.20 L 637.00 883.50 L 641.20 891.40 L 643.80 895.10 L 646.90 898.40 L 650.40 901.50 L 648.60 895.00 L 646.30 888.70 L 643.60 882.50 L 640.40 876.70 L 636.70 871.10 L 632.40 865.90 Z" fill="#301925" fill-rule="nonzero" node-id="66" stroke="none" target-height="854.4" target-width="880" target-x="110" target-y="85"></path><path d="M 676.40 128.50 L 680.10 123.90 L 684.10 119.80 L 688.40 116.00 L 693.00 112.70 L 703.00 107.00 L 713.70 102.80 L 721.20 100.70 L 728.70 99.10 L 736.20 98.10 L 743.50 98.00 L 750.70 98.40 L 757.80 99.40 L 764.90 101.00 L 771.80 103.00 L 778.60 105.50 L 785.20 108.50 L 791.60 112.00 L 797.70 115.90 L 803.50 120.10 L 809.00 124.80 L 814.20 129.90 L 819.00 135.30 L 823.40 141.00 L 827.30 146.90 L 830.80 153.30 L 833.80 159.80 L 836.20 166.60 L 838.00 173.60 L 839.30 180.80 L 839.80 187.50 L 839.90 194.30 L 839.60 201.30 L 838.90 208.10 L 837.70 214.90 L 836.10 221.60 L 833.90 228.10 L 831.30 234.30 L 828.10 240.30 L 825.40 244.60 L 819.00 252.60 L 815.30 256.20 L 819.50 248.10 L 823.20 239.70 L 826.50 230.90 L 828.60 224.20 L 830.30 217.40 L 832.60 203.80 L 833.00 196.80 L 833.00 190.00 L 832.50 183.20 L 831.50 176.40 L 830.00 169.80 L 827.80 163.20 L 825.00 156.80 L 818.40 145.00 L 814.80 139.90 L 810.80 135.10 L 806.40 130.60 L 801.80 126.50 L 796.80 122.80 L 791.70 119.40 L 786.20 116.30 L 780.50 113.60 L 774.70 111.30 L 768.80 109.40 L 762.70 107.80 L 756.50 106.60 L 744.10 105.50 L 737.80 105.50 L 731.50 105.90 L 725.40 106.80 L 719.30 108.10 L 713.30 109.80 L 707.50 111.90 L 701.90 114.40 L 683.90 125.00 L 676.40 128.50 Z" fill="#594049" fill-rule="nonzero" node-id="68" stroke="none" target-height="158.20001" target-width="163.5" target-x="676.4" target-y="98"></path><path d="M 278.80 102.60 L 284.40 103.90 L 295.30 107.40 L 300.50 109.80 L 305.60 112.50 L 310.40 115.70 L 302.80 114.30 L 315.90 133.50 L 297.60 124.30 L 287.00 120.00 L 278.20 117.80 L 273.80 117.30 L 269.20 117.20 L 258.10 118.30 L 251.80 119.40 L 239.30 122.80 L 233.20 125.00 L 221.50 130.50 L 210.50 137.40 L 205.40 141.30 L 200.50 145.50 L 195.90 150.10 L 191.70 154.90 L 187.80 160.00 L 184.20 165.40 L 178.30 176.60 L 176.10 182.20 L 174.40 187.90 L 173.10 193.70 L 171.50 205.60 L 169.70 241.80 L 167.20 228.10 L 166.20 214.10 L 166.30 207.20 L 166.80 200.20 L 167.80 193.40 L 169.30 186.60 L 171.40 180.00 L 173.90 173.60 L 177.00 167.40 L 180.80 161.40 L 184.50 155.80 L 188.50 150.60 L 192.80 145.80 L 197.30 141.20 L 202.20 137.00 L 208.60 132.20 L 215.40 127.80 L 222.40 123.90 L 229.80 120.60 L 237.40 117.70 L 245.10 115.30 L 253.00 113.40 L 261.10 112.00 L 269.20 111.10 L 277.30 110.80 L 285.40 110.90 L 293.50 111.50 L 278.80 102.60 Z" fill="#604149" fill-rule="nonzero" node-id="70" stroke="none" target-height="139.20001" target-width="149.7" target-x="166.2" target-y="102.6"></path><path d="M 413.40 660.80 L 420.90 659.00 L 436.00 656.20 L 443.60 655.30 L 451.30 654.90 L 459.00 654.90 L 446.90 661.90 L 432.80 664.00 L 427.10 677.00 L 405.20 677.80 L 413.40 660.80 Z" fill="#cc6f5f" fill-rule="nonzero" node-id="72" stroke="none" target-height="22.899963" target-width="53.799988" target-x="405.2" target-y="654.9"></path><path d="M 267.40 409.80 L 266.50 402.60 L 266.20 395.50 L 266.50 388.60 L 267.50 381.80 L 269.00 375.10 L 271.10 368.50 L 273.60 362.10 L 276.70 355.90 L 280.20 350.00 L 284.20 344.30 L 288.50 338.80 L 293.30 333.70 L 298.40 328.80 L 303.70 324.40 L 309.40 320.30 L 315.30 316.50 L 321.50 313.20 L 327.90 310.30 L 334.40 307.90 L 341.10 305.90 L 347.90 304.50 L 354.70 303.60 L 361.70 303.30 L 368.70 303.50 L 372.60 304.00 L 376.30 304.80 L 383.30 307.50 L 387.60 310.00 L 391.60 313.00 L 395.20 316.40 L 398.50 320.20 L 401.30 324.40 L 403.70 328.80 L 405.70 333.50 L 407.10 338.30 L 407.90 343.40 L 408.50 351.30 L 408.50 359.20 L 408.00 367.20 L 406.80 375.20 L 405.10 383.00 L 402.80 390.70 L 400.60 396.30 L 398.20 401.80 L 392.20 412.10 L 388.80 417.00 L 385.00 421.50 L 380.80 425.80 L 376.30 429.90 L 370.40 434.10 L 364.20 437.90 L 357.60 441.10 L 350.80 443.90 L 343.90 446.10 L 336.80 447.70 L 331.40 448.50 L 320.60 448.90 L 315.20 448.50 L 309.80 447.80 L 304.60 446.50 L 299.40 444.90 L 294.20 442.80 L 289.80 440.50 L 285.80 437.80 L 282.20 434.60 L 279.00 431.00 L 276.00 427.20 L 273.40 423.10 L 271.20 418.70 L 267.40 409.80 Z M 360.70 371.10 L 357.40 372.50 L 354.40 374.30 L 351.50 376.60 L 349.00 379.10 L 346.90 382.00 L 345.10 385.10 L 345.10 387.40 L 345.50 389.10 L 346.30 390.30 L 347.40 391.20 L 350.50 392.10 L 353.20 392.00 L 356.10 391.40 L 359.00 390.30 L 361.70 388.80 L 364.00 387.00 L 365.60 385.20 L 368.50 382.70 L 369.50 381.30 L 370.50 378.90 L 370.80 376.50 L 370.80 375.00 L 369.80 372.40 L 368.90 371.30 L 366.40 370.10 L 364.90 370.00 L 360.70 371.10 Z" fill="#311b29" fill-rule="nonzero" node-id="74" stroke="none" target-height="145.6" target-width="142.29999" target-x="266.2" target-y="303.3"></path><path d="M 936.40 327.10 L 942.70 320.70 L 946.30 317.60 L 950.10 314.90 L 952.80 313.50 L 955.50 312.60 L 958.20 312.10 L 962.40 312.60 L 964.50 313.50 L 971.90 318.10 L 976.90 322.60 L 978.90 325.10 L 980.40 327.70 L 981.20 331.40 L 981.00 333.20 L 980.40 334.90 L 979.20 336.60 L 954.70 360.10 L 908.80 402.90 L 870.90 438.80 L 856.00 453.50 L 831.90 478.30 L 803.90 508.70 L 797.50 515.20 L 784.00 527.60 L 771.70 530.10 L 746.70 533.70 L 757.20 521.00 L 768.00 508.70 L 779.10 496.60 L 824.50 449.20 L 835.60 437.00 L 861.20 410.00 L 886.60 382.60 L 911.70 355.00 L 936.40 327.10 Z" fill="#9d5e53" fill-rule="nonzero" node-id="76" stroke="none" target-height="221.6" target-width="234.5" target-x="746.7" target-y="312.1"></path><path d="M 462.30 407.40 L 463.40 405.10 L 466.40 401.60 L 470.90 399.10 L 473.90 398.10 L 477.10 397.50 L 482.00 397.10 L 487.10 397.10 L 496.40 397.50 L 502.00 398.30 L 508.40 399.60 L 511.40 400.60 L 513.90 401.90 L 515.30 403.00 L 516.40 404.30 L 517.10 405.90 L 517.30 407.50 L 517.10 409.50 L 515.50 414.70 L 514.50 416.80 L 511.60 420.20 L 507.70 422.70 L 504.40 424.10 L 494.20 427.60 L 497.80 445.60 L 498.50 451.60 L 497.50 460.20 L 487.00 447.80 L 480.70 454.00 L 477.10 456.80 L 469.50 461.50 L 465.50 463.30 L 461.30 464.60 L 457.10 465.50 L 452.70 465.80 L 448.30 465.60 L 443.90 464.80 L 435.30 462.00 L 431.60 460.30 L 428.30 458.20 L 425.40 455.70 L 422.80 452.90 L 420.60 449.70 L 418.80 446.20 L 417.30 442.60 L 416.30 438.70 L 415.70 434.80 L 415.50 430.80 L 415.70 426.70 L 417.70 428.30 L 421.10 432.00 L 423.10 435.20 L 428.20 445.40 L 430.20 448.50 L 432.60 451.30 L 434.40 452.80 L 436.60 454.10 L 443.20 456.80 L 447.20 457.80 L 451.20 458.20 L 455.20 458.00 L 459.10 457.30 L 462.80 456.10 L 466.40 454.40 L 469.80 452.30 L 472.90 449.80 L 475.70 447.00 L 478.10 443.80 L 480.10 440.30 L 481.70 436.60 L 482.70 432.60 L 483.30 428.40 L 472.10 423.20 L 466.50 419.50 L 464.80 417.60 L 463.40 415.50 L 462.50 413.30 L 462.10 410.60 L 462.30 407.40 Z" fill="#341824" fill-rule="nonzero" node-id="78" stroke="none" target-height="68.69998" target-width="101.79999" target-x="415.5" target-y="397.1"></path><path d="M 713.50 408.70 L 726.10 411.30 L 738.70 414.70 L 746.60 417.80 L 754.00 422.00 L 757.40 424.70 L 763.40 430.30 L 765.80 433.00 L 767.80 435.90 L 769.50 439.00 L 771.20 443.50 L 772.30 448.10 L 772.80 452.90 L 772.80 457.70 L 772.30 462.60 L 771.40 467.40 L 769.90 472.00 L 768.00 476.40 L 765.80 480.50 L 760.70 485.70 L 755.30 490.30 L 749.40 494.50 L 743.30 498.10 L 736.90 501.30 L 730.20 503.90 L 723.30 506.10 L 716.40 507.80 L 709.20 509.00 L 702.10 509.80 L 694.90 510.10 L 679.80 509.80 L 671.90 509.30 L 663.80 508.20 L 655.80 506.60 L 648.00 504.40 L 640.40 501.70 L 634.90 499.20 L 629.60 496.40 L 624.60 493.20 L 619.80 489.60 L 615.30 485.70 L 611.20 481.40 L 607.50 476.70 L 604.10 471.50 L 602.30 468.30 L 601.20 465.10 L 600.70 462.00 L 600.70 458.80 L 601.80 452.30 L 603.30 447.40 L 608.80 433.30 L 614.50 436.30 L 620.30 438.90 L 626.40 441.10 L 632.60 442.90 L 638.90 444.40 L 645.20 445.40 L 651.60 446.00 L 658.00 446.10 L 664.50 445.80 L 670.80 445.00 L 677.10 443.80 L 683.30 442.00 L 687.00 440.50 L 690.40 438.70 L 696.60 434.20 L 700.20 430.70 L 703.50 426.80 L 706.50 422.50 L 709.20 418.00 L 713.50 408.70 Z M 728.30 437.80 L 727.60 440.00 L 727.50 443.50 L 728.00 444.90 L 729.10 446.60 L 730.60 448.00 L 732.50 449.20 L 735.90 450.40 L 739.60 451.00 L 743.30 451.10 L 746.60 450.80 L 747.00 448.20 L 746.80 445.90 L 746.10 443.70 L 744.90 441.80 L 743.50 440.10 L 741.70 438.70 L 737.50 436.80 L 735.20 436.40 L 732.80 436.40 L 730.60 436.90 L 728.30 437.80 Z" fill="#f8cdce" fill-rule="nonzero" node-id="80" stroke="none" target-height="101.399994" target-width="172.09998" target-x="600.7" target-y="408.7"></path><path d="M 209.20 434.60 L 211.60 430.90 L 214.10 427.60 L 217.00 424.70 L 220.10 422.20 L 224.60 419.20 L 229.50 416.70 L 234.60 414.70 L 245.40 411.90 L 259.40 410.20 L 267.40 409.80 L 271.20 418.70 L 273.40 423.10 L 276.00 427.20 L 279.00 431.00 L 282.20 434.60 L 285.80 437.80 L 289.80 440.50 L 294.20 442.80 L 299.40 444.90 L 304.60 446.50 L 309.80 447.80 L 315.20 448.50 L 326.00 448.90 L 336.80 447.70 L 343.90 446.10 L 350.80 443.90 L 357.60 441.10 L 364.20 437.90 L 370.40 434.10 L 376.30 429.90 L 374.30 453.70 L 373.50 459.60 L 371.20 469.20 L 368.20 476.50 L 364.80 480.50 L 361.20 484.10 L 357.20 487.30 L 348.50 492.80 L 343.80 495.20 L 336.60 498.20 L 329.20 500.70 L 321.70 502.80 L 314.20 504.60 L 302.90 506.40 L 291.20 507.70 L 283.40 508.10 L 275.50 508.00 L 267.80 507.60 L 260.00 506.60 L 252.50 505.00 L 245.10 502.90 L 239.80 500.80 L 234.60 498.30 L 229.50 495.40 L 224.60 492.00 L 220.50 488.60 L 216.70 484.80 L 213.30 480.50 L 210.30 475.80 L 207.90 471.00 L 206.00 465.90 L 205.00 461.90 L 204.10 454.00 L 204.20 450.00 L 204.70 446.10 L 205.70 442.20 L 207.20 438.40 L 209.20 434.60 Z M 237.00 433.10 L 234.70 433.80 L 233.10 434.80 L 231.00 437.50 L 230.00 441.00 L 229.30 452.80 L 241.80 449.80 L 248.00 448.00 L 254.10 445.70 L 254.50 443.30 L 254.40 441.10 L 253.80 439.00 L 252.70 437.10 L 251.30 435.40 L 249.60 434.00 L 247.70 432.90 L 243.50 431.70 L 241.30 431.70 L 239.10 432.20 L 237.00 433.10 Z" fill="#f8cece" fill-rule="nonzero" node-id="82" stroke="none" target-height="98.30002" target-width="172.19998" target-x="204.1" target-y="409.8"></path><path d="M 237.00 433.10 L 239.10 432.20 L 241.30 431.70 L 243.50 431.70 L 245.70 432.10 L 249.60 434.00 L 251.30 435.40 L 252.70 437.10 L 253.80 439.00 L 254.40 441.10 L 254.50 443.30 L 254.10 445.70 L 248.00 448.00 L 241.80 449.80 L 229.30 452.80 L 230.00 441.00 L 231.00 437.50 L 233.10 434.80 L 234.70 433.80 L 237.00 433.10 Z" fill="#fbe9e7" fill-rule="nonzero" node-id="84" stroke="none" target-height="21.099976" target-width="25.199997" target-x="229.3" target-y="431.7"></path><path d="M 728.30 437.80 L 730.60 436.90 L 732.80 436.40 L 735.20 436.40 L 737.50 436.80 L 741.70 438.70 L 743.50 440.10 L 744.90 441.80 L 746.10 443.70 L 746.80 445.90 L 747.00 448.20 L 746.60 450.80 L 743.30 451.10 L 739.60 451.00 L 735.90 450.40 L 732.50 449.20 L 730.60 448.00 L 729.10 446.60 L 728.00 444.90 L 727.50 443.50 L 727.60 440.00 L 728.30 437.80 Z" fill="#f9e7e6" fill-rule="nonzero" node-id="86" stroke="none" target-height="14.700012" target-width="19.5" target-x="727.5" target-y="436.4"></path><path d="M 797.00 530.70 L 804.70 523.00 L 812.10 515.00 L 840.10 481.90 L 847.40 474.00 L 855.20 466.40 L 855.40 472.30 L 855.20 478.30 L 854.40 484.40 L 853.10 490.40 L 851.40 496.20 L 849.20 502.00 L 846.50 507.60 L 843.40 512.80 L 839.90 517.80 L 836.00 522.40 L 831.70 526.60 L 827.00 530.30 L 819.40 534.90 L 810.90 538.10 L 819.10 547.90 L 822.80 553.10 L 827.90 562.40 L 830.70 570.40 L 827.40 566.40 L 824.40 562.00 L 815.90 548.30 L 812.90 543.90 L 809.60 539.80 L 806.00 536.20 L 803.30 534.10 L 797.00 530.70 Z" fill="#b4b5c3" fill-rule="nonzero" node-id="88" stroke="none" target-height="104.00003" target-width="58.400024" target-x="797" target-y="466.4"></path><path d="M 366.80 595.90 L 388.10 599.60 L 409.30 602.70 L 430.70 605.30 L 452.10 607.20 L 473.50 608.70 L 495.00 609.70 L 516.50 610.30 L 538.00 610.40 L 566.70 610.00 L 595.30 609.00 L 624.00 607.40 L 616.70 617.40 L 609.90 627.70 L 605.80 634.80 L 602.00 642.10 L 598.70 649.70 L 585.00 647.70 L 571.30 646.30 L 557.50 645.40 L 543.80 645.00 L 530.00 645.00 L 516.20 645.40 L 502.70 644.10 L 489.30 643.50 L 475.80 643.50 L 462.30 644.10 L 448.90 645.40 L 435.60 647.10 L 422.30 649.40 L 409.10 652.10 L 406.30 645.50 L 403.20 639.10 L 399.80 632.90 L 396.00 626.90 L 391.80 621.10 L 386.20 614.30 L 380.20 607.80 L 373.70 601.70 L 366.80 595.90 Z" fill="#ebe7e9" fill-rule="nonzero" node-id="90" stroke="none" target-height="56.19995" target-width="257.2" target-x="366.8" target-y="595.9"></path><path d="M 459.00 654.90 L 468.10 652.70 L 472.80 652.00 L 477.50 651.80 L 482.20 652.00 L 486.80 652.80 L 488.20 653.90 L 489.10 655.50 L 488.50 656.90 L 487.60 657.60 L 486.10 658.30 L 482.00 659.40 L 480.00 659.60 L 472.00 659.00 L 467.20 658.30 L 462.60 657.10 L 458.10 655.40 L 459.00 654.90 Z" fill="#df835d" fill-rule="nonzero" node-id="92" stroke="none" target-height="7.799988" target-width="31" target-x="458.1" target-y="651.8"></path><path d="M 519.60 652.90 L 522.90 653.30 L 525.60 654.10 L 527.70 655.40 L 529.50 657.10 L 530.80 659.20 L 531.80 661.90 L 532.30 665.30 L 545.20 663.90 L 541.80 653.90 L 554.70 655.70 L 553.10 660.00 L 551.00 664.00 L 546.40 671.80 L 548.80 672.30 L 551.10 672.40 L 555.10 671.40 L 557.50 670.00 L 559.60 668.20 L 561.50 665.90 L 563.00 663.30 L 565.00 657.70 L 570.10 658.70 L 580.20 659.80 L 590.40 659.50 L 595.50 658.90 L 595.10 665.50 L 595.20 672.10 L 595.70 678.60 L 596.80 685.00 L 598.20 691.40 L 600.20 697.70 L 591.30 697.00 L 582.50 695.80 L 565.00 692.40 L 562.70 692.90 L 560.80 693.70 L 559.20 694.90 L 557.00 697.20 L 555.20 700.10 L 550.50 709.40 L 548.90 712.10 L 526.40 721.40 L 503.40 711.70 L 489.30 703.60 L 499.50 697.30 L 501.50 706.00 L 510.50 700.20 L 508.40 698.00 L 504.50 695.30 L 502.60 694.60 L 500.00 694.10 L 497.30 694.20 L 494.70 694.80 L 489.50 697.10 L 482.90 701.50 L 471.90 709.80 L 461.60 708.30 L 449.10 705.00 L 441.80 702.50 L 427.30 696.90 L 410.70 700.90 L 394.00 704.30 L 377.20 707.10 L 389.40 695.60 L 395.80 690.10 L 402.60 685.20 L 407.60 684.50 L 412.70 684.20 L 422.90 684.80 L 433.00 685.90 L 437.20 663.30 L 446.90 661.90 L 463.90 669.90 L 470.90 663.90 L 473.70 665.30 L 479.00 666.80 L 481.50 666.90 L 484.90 666.60 L 488.20 665.80 L 491.50 664.50 L 496.30 661.90 L 501.10 658.80 L 503.70 657.90 L 505.90 657.60 L 507.80 657.70 L 511.50 659.10 L 513.20 660.30 L 515.50 662.50 L 524.40 673.10 L 528.60 676.30 L 532.50 677.50 L 534.60 677.60 L 537.00 677.10 L 539.80 676.10 L 537.30 673.70 L 534.50 671.70 L 531.30 670.20 L 527.90 669.10 L 519.60 652.90 Z" fill="#e0a36b" fill-rule="nonzero" node-id="94" stroke="none" target-height="68.5" target-width="223" target-x="377.2" target-y="652.9"></path><path d="M 289.40 691.30 L 364.90 700.20 L 345.60 701.90 L 335.80 702.40 L 326.00 702.40 L 319.50 701.90 L 313.10 700.90 L 306.90 699.50 L 302.40 698.10 L 298.00 696.20 L 293.60 694.00 L 289.40 691.30 Z" fill="#796361" fill-rule="nonzero" node-id="96" stroke="none" target-height="11.100037" target-width="75.5" target-x="289.4" target-y="691.3"></path><path d="M 369.80 693.30 L 372.20 692.00 L 374.90 691.50 L 375.80 691.80 L 376.30 692.30 L 376.50 693.10 L 376.40 694.60 L 375.70 696.20 L 374.80 697.60 L 372.90 698.90 L 371.30 698.30 L 370.80 697.50 L 369.80 693.30 Z" fill="#695457" fill-rule="nonzero" node-id="98" stroke="none" target-height="7.4000244" target-width="6.700012" target-x="369.8" target-y="691.5"></path><path d="M 609.20 688.80 L 628.50 698.50 L 633.40 700.70 L 638.50 702.50 L 645.50 704.00 L 656.60 704.40 L 664.10 704.10 L 693.90 701.60 L 694.70 706.40 L 679.80 707.60 L 670.10 709.70 L 665.40 711.40 L 687.30 713.20 L 701.50 727.60 L 686.00 736.50 L 671.80 740.80 L 657.50 744.70 L 643.20 748.10 L 628.70 751.00 L 599.40 755.50 L 570.00 758.50 L 550.30 759.80 L 530.60 760.70 L 510.90 761.10 L 491.60 761.10 L 472.20 760.80 L 453.00 760.00 L 433.70 758.70 L 414.40 756.90 L 395.30 754.60 L 376.20 751.80 L 357.20 748.40 L 346.30 746.10 L 324.70 740.70 L 314.10 737.30 L 300.30 731.90 L 293.50 728.70 L 312.00 720.80 L 318.30 718.60 L 324.10 718.70 L 347.20 720.70 L 356.80 720.40 L 364.40 718.90 L 387.20 711.10 L 400.00 707.20 L 410.40 705.20 L 415.60 704.70 L 420.90 704.70 L 426.40 705.30 L 459.50 714.60 L 467.90 716.70 L 476.40 718.20 L 489.30 703.60 L 499.00 709.20 L 496.50 710.60 L 494.70 712.20 L 493.40 713.90 L 492.60 715.80 L 492.20 718.00 L 492.30 720.60 L 504.80 723.80 L 511.20 725.00 L 517.60 725.80 L 530.50 726.50 L 558.80 717.00 L 568.50 714.80 L 573.50 714.20 L 573.10 709.80 L 557.00 708.60 L 564.80 697.30 L 578.10 701.00 L 587.00 702.50 L 591.50 702.70 L 596.00 702.40 L 600.50 701.70 L 605.00 700.30 L 612.40 704.60 L 620.00 708.50 L 627.80 712.00 L 643.90 717.80 L 652.10 720.10 L 665.10 712.60 L 649.70 709.90 L 642.00 708.20 L 634.50 706.10 L 629.60 704.30 L 624.90 702.10 L 620.50 699.60 L 617.40 697.40 L 611.80 692.00 L 609.20 688.80 Z" fill="#a1524e" fill-rule="nonzero" node-id="100" stroke="none" target-height="72.29999" target-width="408" target-x="293.5" target-y="688.8"></path><path d="M 272.80 725.60 L 274.00 721.00 L 275.80 716.60 L 282.10 703.60 L 283.90 699.20 L 311.70 706.20 L 302.30 717.20 L 293.50 728.70 L 284.40 720.00 L 276.10 727.40 L 282.50 731.90 L 289.00 735.90 L 295.80 739.40 L 310.00 745.20 L 317.30 747.60 L 328.40 750.60 L 339.60 753.20 L 354.90 756.60 L 370.20 759.50 L 385.60 761.90 L 401.00 764.00 L 421.70 766.10 L 442.40 767.60 L 463.20 768.60 L 484.00 769.10 L 525.50 768.90 L 547.10 767.90 L 583.10 765.50 L 611.80 762.20 L 626.10 760.00 L 640.20 757.20 L 654.30 753.90 L 664.70 751.10 L 675.00 747.90 L 685.20 744.20 L 695.30 740.20 L 700.80 737.50 L 716.80 728.40 L 719.20 735.80 L 721.10 743.50 L 722.40 751.50 L 723.10 759.60 L 723.20 767.60 L 722.60 775.70 L 721.80 781.70 L 718.90 793.20 L 717.00 798.80 L 714.60 804.20 L 711.80 809.30 L 708.60 814.20 L 705.00 818.90 L 701.00 823.20 L 696.50 827.10 L 691.60 830.70 L 686.20 834.00 L 674.00 840.10 L 661.70 845.70 L 649.20 850.80 L 636.50 855.40 L 623.60 859.50 L 610.60 863.10 L 597.50 866.30 L 584.20 869.00 L 570.90 871.30 L 557.40 873.10 L 540.60 874.80 L 523.60 875.80 L 506.70 876.20 L 489.70 876.00 L 472.70 875.20 L 455.80 873.80 L 439.10 872.00 L 422.40 869.50 L 397.10 864.40 L 384.40 861.30 L 371.90 857.80 L 363.60 855.00 L 347.60 848.60 L 339.90 844.70 L 332.50 840.40 L 325.40 835.70 L 315.40 827.60 L 306.30 818.00 L 302.00 812.80 L 298.20 807.30 L 294.90 801.60 L 292.10 795.70 L 287.40 783.40 L 284.60 773.90 L 275.40 735.00 L 272.80 725.60 Z" fill="#e1dfe3" fill-rule="nonzero" node-id="102" stroke="none" target-height="177" target-width="450.40002" target-x="272.8" target-y="699.2"></path><path d="M 324.30 708.40 L 336.20 707.40 L 348.10 707.10 L 360.00 707.50 L 371.90 708.40 L 366.80 710.50 L 361.60 712.00 L 356.30 713.00 L 350.80 713.40 L 345.40 713.40 L 340.00 712.90 L 334.60 711.90 L 329.40 710.40 L 324.30 708.40 Z" fill="#9a776f" fill-rule="nonzero" node-id="104" stroke="none" target-height="6.300049" target-width="47.600006" target-x="324.3" target-y="707.1"></path><path d="M 698.50 713.10 L 701.50 712.70 L 703.60 712.90 L 705.00 713.50 L 705.90 714.50 L 706.40 715.90 L 706.50 718.00 L 706.00 721.00 L 702.90 721.40 L 700.80 721.20 L 699.40 720.60 L 698.50 719.60 L 697.90 718.20 L 697.90 716.10 L 698.50 713.10 Z" fill="#725150" fill-rule="nonzero" node-id="106" stroke="none" target-height="8.700012" target-width="8.599976" target-x="697.9" target-y="712.7"></path><path d="M 811.10 796.30 L 820.90 786.80 L 822.10 822.50 L 821.90 834.50 L 821.50 842.40 L 820.60 850.30 L 819.30 858.00 L 817.50 865.70 L 815.00 873.20 L 812.00 880.60 L 808.70 886.10 L 804.90 891.00 L 800.70 895.50 L 796.20 899.60 L 791.30 903.40 L 786.00 906.80 L 780.60 909.90 L 769.20 915.10 L 760.40 918.40 L 751.60 921.10 L 731.50 926.00 L 721.20 928.00 L 711.00 929.40 L 704.10 930.00 L 690.30 930.20 L 683.40 929.70 L 676.60 928.70 L 669.80 927.20 L 667.20 913.70 L 677.70 914.40 L 688.30 914.60 L 698.90 914.40 L 709.40 913.70 L 720.00 912.50 L 730.30 910.80 L 740.60 908.50 L 750.70 905.70 L 758.70 903.00 L 766.50 899.80 L 774.10 896.30 L 781.60 892.40 L 794.60 885.10 L 798.50 880.00 L 801.80 874.70 L 804.50 869.30 L 806.60 863.60 L 808.30 857.80 L 809.60 851.80 L 811.10 839.60 L 811.50 833.40 L 811.60 824.00 L 811.10 796.30 Z" fill="#5f4747" fill-rule="nonzero" node-id="108" stroke="none" target-height="143.40002" target-width="154.89996" target-x="667.2" target-y="786.8"></path><path d="M 376.50 869.80 L 391.80 873.30 L 407.10 876.40 L 422.50 879.00 L 438.00 881.20 L 453.60 882.90 L 469.10 884.20 L 484.70 884.90 L 500.40 885.20 L 516.00 885.10 L 531.60 884.40 L 547.20 883.20 L 562.70 881.50 L 578.20 879.30 L 593.60 876.60 L 608.80 873.30 L 624.10 869.50 L 631.00 884.50 L 610.10 888.00 L 589.00 891.00 L 567.70 893.60 L 551.80 895.20 L 535.80 896.40 L 503.80 897.60 L 487.80 897.60 L 471.80 897.10 L 455.90 896.00 L 440.00 894.50 L 424.20 892.50 L 408.50 889.80 L 392.80 886.50 L 377.20 882.70 L 376.50 869.80 Z" fill="#efecee" fill-rule="nonzero" node-id="110" stroke="none" target-height="28.099976" target-width="254.5" target-x="376.5" target-y="869.5"></path><path d="M 632.40 865.90 L 636.70 871.10 L 640.40 876.70 L 643.60 882.50 L 646.30 888.70 L 648.60 895.00 L 650.40 901.50 L 646.90 898.40 L 643.80 895.10 L 641.20 891.40 L 638.90 887.60 L 635.40 879.20 L 633.60 872.60 L 632.40 865.90 Z" fill="#604249" fill-rule="nonzero" node-id="112" stroke="none" target-height="35.599976" target-width="18" target-x="632.4" target-y="865.9"></path><path d="M 371.90 888.30 L 388.00 892.10 L 404.10 895.40 L 420.30 898.10 L 436.60 900.20 L 453.00 901.90 L 469.30 903.00 L 485.70 903.60 L 502.20 903.80 L 518.60 903.40 L 535.10 902.70 L 551.50 901.50 L 567.90 899.90 L 600.50 895.50 L 632.90 889.70 L 638.80 904.30 L 633.40 907.90 L 627.90 911.10 L 622.10 914.00 L 616.20 916.50 L 610.00 918.40 L 587.80 922.80 L 571.80 925.50 L 555.70 927.70 L 539.60 929.40 L 523.40 930.70 L 507.20 931.50 L 491.00 931.90 L 474.80 931.70 L 458.60 931.10 L 442.40 929.90 L 443.10 938.50 L 426.90 937.00 L 416.30 935.00 L 411.10 933.50 L 441.70 936.90 L 441.30 929.80 L 407.80 925.50 L 396.80 923.40 L 389.50 921.50 L 382.40 919.20 L 375.40 916.50 L 373.80 913.20 L 372.80 909.80 L 372.20 906.30 L 371.90 888.30 Z" fill="#d6cfd4" fill-rule="nonzero" node-id="114" stroke="none" target-height="50.200012" target-width="266.9" target-x="371.9" target-y="888.3"></path></svg>