<?xml version="1.0" encoding="UTF-8"?>
<svg width="16px" height="16px" viewBox="0 0 16 16" version="1.1" xmlns="http://www.w3.org/2000/svg" xmlns:xlink="http://www.w3.org/1999/xlink">
    <g id="羚羊web-改版2.0" stroke="none" stroke-width="1" fill="none" fill-rule="evenodd">
        <g id="1.-羚羊Web-首页2.0-1" transform="translate(-488.000000, -4003.000000)" fill="#FFFFFF">
            <g id="编组-13" transform="translate(0.000000, 3542.000000)">
                <g id="编组-44" transform="translate(300.000000, 263.000000)">
                    <g id="btn" transform="translate(0.000000, 184.000000)">
                        <g id="-mockplus-" transform="translate(188.000000, 14.000000)">
                            <g id="指向/direction-arrow-left" transform="translate(8.000000, 8.000000) rotate(180.000000) translate(-8.000000, -8.000000) ">
                                <rect id="hover" opacity="0" x="0" y="0" width="16" height="16"></rect>
                                <path d="M7.23570226,2.95955989 L7.70710678,3.43096441 C7.83727432,3.56114234 7.83727665,3.77219332 7.70711197,3.90237412 L4.27633333,7.33326215 L13.6666667,7.33333333 C13.8376119,7.33333333 13.9785024,7.4620134 13.9977574,7.62779296 L14,7.66666667 L14,8.33333333 C14,8.51742825 13.8507616,8.66666667 13.6666667,8.66666667 L4.27633333,8.66659548 L7.70711197,12.0976259 C7.83727665,12.2278067 7.83727432,12.4388577 7.70710678,12.5690356 L7.23570226,13.0404401 C7.1055275,13.1706149 6.8944725,13.1706149 6.76429774,13.0404401 L2.19526215,8.47140452 C1.93491262,8.21105499 1.93491262,7.78894501 2.19526215,7.52859548 L6.76429774,2.95955989 C6.8944725,2.82938512 7.1055275,2.82938512 7.23570226,2.95955989 Z" id="路径" fill-rule="nonzero"></path>
                            </g>
                        </g>
                    </g>
                </g>
            </g>
        </g>
    </g>
</svg>