<?xml version="1.0" encoding="UTF-8"?>
<svg width="12px" height="12px" viewBox="0 0 12 12" version="1.1" xmlns="http://www.w3.org/2000/svg" xmlns:xlink="http://www.w3.org/1999/xlink">
    <g id="羚羊web-改版2.0" stroke="none" stroke-width="1" fill="none" fill-rule="evenodd">
        <g id="1.-羚羊Web-首页2.0-定稿" transform="translate(-1654.000000, -3880.000000)" fill="#13AE68" fill-rule="nonzero">
            <g id="数字化软件服务包备份-3" transform="translate(252.000000, 3860.000000)">
                <g id="编组-5" transform="translate(1296.000000, 12.000000)">
                    <g id="指向/direction-arrow-left" transform="translate(112.000000, 14.000000) scale(-1, 1) translate(-112.000000, -14.000000) translate(106.000000, 8.000000)">
                        <path d="M7.4267767,1.96966991 L7.78033009,2.3232233 C7.87795613,2.42085658 7.87795775,2.57914504 7.7803337,2.67678031 L4.45725,6 L7.7803337,9.32321969 C7.87795775,9.42085496 7.87795613,9.57914342 7.78033009,9.6767767 L7.4267767,10.0303301 C7.32914562,10.1279612 7.17085438,10.1279612 7.0732233,10.0303301 L3.39644661,6.35355339 C3.21146142,6.1685682 3.20172536,5.87469716 3.36723842,5.6782503 L3.39644661,5.64644661 L7.0732233,1.96966991 C7.17085438,1.87203884 7.32914562,1.87203884 7.4267767,1.96966991 Z" id="路径"></path>
                    </g>
                </g>
            </g>
        </g>
    </g>
</svg>