<?xml version="1.0" encoding="UTF-8" ?>
<!DOCTYPE svg PUBLIC "-//W3C//DTD SVG 1.1//EN" "http://www.w3.org/Graphics/SVG/1.1/DTD/svg11.dtd">
<svg width="280pt" height="198pt" viewBox="0 0 280 198" version="1.1" xmlns="http://www.w3.org/2000/svg">
<g id="#f8f7f7ff">
<!--<path fill="#f8f7f7" opacity="1.00" d=" M 165.63 50.00 C 166.80 50.77 167.97 51.54 169.12 52.34 C 167.90 52.51 166.68 52.66 165.46 52.79 C 165.50 52.09 165.59 50.70 165.63 50.00 Z" />-->
<!--<path fill="#f8f7f7" opacity="1.00" d=" M 199.69 51.56 C 200.18 51.27 201.16 50.68 201.65 50.39 C 201.23 54.89 200.07 59.38 198.00 63.41 C 198.08 59.42 198.57 55.39 199.69 51.56 Z" />-->
<!--<path fill="#f8f7f7" opacity="1.00" d=" M 210.68 95.19 C 211.62 91.38 213.33 87.81 215.00 84.28 C 214.76 88.00 214.98 93.80 210.68 95.19 Z" />-->
<!--<path fill="#f8f7f7" opacity="1.00" d=" M 151.95 92.82 C 153.87 91.20 156.00 89.82 158.35 88.90 C 157.06 90.78 155.50 92.44 153.92 94.07 C 153.43 93.76 152.44 93.13 151.95 92.82 Z" />-->
<!--<path fill="#f8f7f7" opacity="1.00" d=" M 84.76 108.81 C 85.25 109.23 86.22 110.05 86.71 110.46 C 87.38 115.49 87.98 120.77 86.66 125.73 C 86.02 120.10 84.85 114.49 84.76 108.81 Z" />-->
<!--<path fill="#f8f7f7" opacity="1.00" d=" M 129.02 149.02 C 133.26 146.22 138.36 145.07 143.33 144.41 C 144.42 144.16 145.42 144.67 146.39 145.06 C 141.87 146.08 137.12 146.69 133.04 149.07 C 130.60 150.35 128.71 152.58 125.97 153.27 C 126.50 151.55 127.46 149.97 129.02 149.02 Z" />-->
<!--<path fill="#f8f7f7" opacity="1.00" d=" M 206.42 153.19 C 208.27 153.56 210.11 154.06 211.95 154.51 C 211.92 155.12 211.87 156.35 211.85 156.96 C 209.79 156.09 207.81 154.97 206.42 153.19 Z" />-->
</g>
<g id="#dfdfdfff">
<path fill="#dfdfdf" opacity="1.00" d=" M 103.35 43.33 C 104.87 39.42 105.85 35.07 108.93 32.01 C 112.67 34.86 112.00 39.96 111.85 44.10 C 116.30 45.15 120.88 46.48 124.44 49.49 C 126.39 50.55 124.85 52.96 125.34 54.67 C 126.07 57.73 125.35 60.77 124.58 63.74 C 127.76 60.93 127.43 56.52 127.70 52.68 C 128.68 56.35 128.74 60.23 127.13 63.74 C 129.08 61.48 131.77 60.16 134.77 60.20 C 138.91 67.94 126.95 73.44 129.65 81.28 C 130.36 83.38 132.65 84.96 134.88 84.16 C 145.43 81.11 150.41 66.64 144.24 57.64 C 142.08 56.36 139.48 57.76 137.14 57.61 C 135.58 55.81 138.12 54.96 139.36 54.13 C 142.16 52.90 146.16 53.36 147.90 56.14 C 152.23 62.78 152.79 71.80 149.10 78.85 C 149.20 74.77 150.84 70.76 150.10 66.66 C 148.41 71.01 147.75 75.68 145.91 79.98 C 146.44 80.40 147.50 81.24 148.03 81.65 C 144.88 85.40 141.41 89.30 136.48 90.61 C 131.41 92.32 125.30 89.84 123.11 84.90 C 120.10 79.57 121.56 73.19 124.02 67.97 C 117.19 76.30 108.14 82.92 97.90 86.37 C 96.59 86.40 94.85 86.16 95.19 84.43 C 105.48 79.73 114.89 72.64 120.98 62.98 C 122.26 60.86 123.44 57.78 121.38 55.73 C 118.26 52.48 113.55 51.81 109.30 51.22 C 105.56 57.32 100.57 62.57 94.79 66.77 C 85.43 73.74 74.61 78.91 66.52 87.50 C 60.45 94.03 57.05 103.95 60.45 112.55 C 63.86 120.17 72.84 123.00 80.62 122.61 C 80.69 116.93 78.45 111.03 80.64 105.52 C 81.09 103.93 82.69 103.24 83.93 102.38 C 89.68 106.78 88.25 114.68 88.77 120.99 C 92.83 119.72 96.79 117.77 101.15 117.81 C 98.64 122.10 93.30 122.76 89.09 124.51 C 89.02 127.53 89.08 130.55 89.21 133.57 C 92.82 133.17 97.13 129.66 100.19 132.94 C 96.95 135.45 92.96 136.60 89.31 138.33 C 89.12 146.10 88.44 154.32 84.06 161.01 C 79.71 168.08 71.10 171.95 62.93 171.36 C 60.46 171.12 57.14 170.99 56.78 167.89 C 61.11 167.64 65.64 168.48 69.77 166.75 C 74.81 164.97 79.01 160.93 80.80 155.87 C 82.70 151.23 82.77 146.15 82.71 141.21 C 76.03 144.06 69.36 146.96 62.69 149.84 C 59.74 151.57 55.11 148.73 56.06 145.19 C 56.83 142.59 59.55 141.55 61.94 140.97 C 68.64 139.29 75.26 137.31 81.96 135.62 C 81.81 132.55 81.53 129.50 81.25 126.44 C 73.07 127.00 63.82 125.34 58.45 118.55 C 53.70 113.10 53.27 105.46 53.96 98.59 C 54.26 98.92 54.88 99.57 55.18 99.90 C 55.88 103.54 55.51 107.56 57.74 110.75 C 57.15 105.33 56.40 99.71 58.41 94.46 C 59.61 90.00 63.28 86.85 64.84 82.58 C 58.96 84.88 57.01 91.91 55.99 97.55 C 54.95 98.30 54.15 96.30 54.88 95.63 C 59.07 82.21 71.33 73.98 82.23 66.26 C 87.86 62.23 93.73 58.20 97.84 52.52 C 93.20 54.07 88.49 56.48 83.45 55.27 C 82.62 51.77 84.94 48.51 88.02 47.04 C 92.65 44.33 98.11 43.83 103.35 43.33 M 84.76 108.81 C 84.85 114.49 86.02 120.10 86.66 125.73 C 87.98 120.77 87.38 115.49 86.71 110.46 C 86.22 110.05 85.25 109.23 84.76 108.81 Z" />
<path fill="#dfdfdf" opacity="1.00" d=" M 194.78 49.65 C 195.48 46.89 199.33 45.16 201.43 47.48 C 205.01 51.40 201.53 56.66 201.29 61.14 C 206.78 61.44 212.26 64.11 215.10 68.95 C 218.30 73.89 218.07 80.16 216.83 85.69 C 215.34 92.44 211.54 98.89 205.61 102.62 C 197.46 107.35 186.35 105.93 179.54 99.47 C 171.51 92.18 169.16 79.50 173.76 69.75 C 175.67 66.02 179.25 61.94 183.90 62.91 C 183.87 69.64 179.90 75.57 179.66 82.29 C 184.06 81.75 188.43 81.06 192.82 80.44 C 193.76 70.18 193.07 59.84 194.78 49.65 M 199.69 51.56 C 198.57 55.39 198.08 59.42 198.00 63.41 C 200.07 59.38 201.23 54.89 201.65 50.39 C 201.16 50.68 200.18 51.27 199.69 51.56 M 197.74 79.70 C 201.08 79.16 204.40 78.45 207.77 78.10 C 208.30 78.59 209.38 79.56 209.91 80.05 C 205.77 82.55 201.01 83.66 196.60 85.56 C 196.06 87.93 196.05 90.75 193.80 92.24 C 192.71 90.67 192.46 88.83 192.35 86.98 C 188.87 88.16 185.35 89.25 181.97 90.69 C 184.92 94.64 188.94 98.40 194.13 98.67 C 200.40 99.68 206.49 95.79 209.33 90.33 C 212.43 84.72 214.34 77.54 211.54 71.44 C 209.62 67.22 205.05 65.23 200.75 64.40 C 199.57 69.46 198.70 74.59 197.74 79.70 M 210.68 95.19 C 214.98 93.80 214.76 88.00 215.00 84.28 C 213.33 87.81 211.62 91.38 210.68 95.19 Z" />
<path fill="#dfdfdf" opacity="1.00" d=" M 164.25 48.60 C 168.00 49.28 171.60 50.57 175.18 51.85 C 175.08 52.58 174.89 54.02 174.79 54.75 C 171.42 55.54 168.10 56.48 164.82 57.58 C 163.97 54.66 163.74 51.61 164.25 48.60 M 165.63 50.00 C 165.59 50.70 165.50 52.09 165.46 52.79 C 166.68 52.66 167.90 52.51 169.12 52.34 C 167.97 51.54 166.80 50.77 165.63 50.00 Z" />
<path fill="#dfdfdf" opacity="1.00" d=" M 222.08 53.64 C 226.57 59.80 228.26 67.52 229.11 74.96 C 230.12 84.89 227.62 94.78 223.45 103.74 C 226.56 104.96 229.04 108.18 227.57 111.59 C 227.15 114.26 224.02 114.16 221.97 114.43 C 219.81 111.87 220.51 108.58 220.82 105.55 C 214.29 108.60 213.59 116.68 213.42 122.99 C 212.99 131.96 217.02 140.17 221.07 147.87 C 213.27 141.46 211.02 130.64 211.56 121.01 C 211.99 116.14 212.61 110.79 215.96 106.96 C 217.41 105.13 219.77 104.56 221.86 103.77 C 227.09 93.36 229.69 81.40 227.41 69.84 C 226.61 64.15 224.22 58.91 222.08 53.64 M 222.55 105.63 C 222.26 107.66 221.68 109.71 222.02 111.77 C 223.27 114.07 226.53 112.18 226.35 109.95 C 226.72 107.59 224.49 106.21 222.55 105.63 Z" />
<path fill="#dfdfdf" opacity="1.00" d=" M 159.67 67.79 C 160.55 63.77 165.33 64.78 168.40 64.58 C 168.87 68.90 163.88 70.59 161.56 73.51 C 158.69 73.11 157.68 69.32 156.28 67.13 C 157.41 67.34 158.54 67.57 159.67 67.79 Z" />
<path fill="#dfdfdf" opacity="1.00" d=" M 149.13 88.54 C 155.33 86.29 161.62 84.31 167.84 82.10 C 168.32 82.63 169.27 83.69 169.75 84.21 C 166.70 87.07 163.13 89.26 159.83 91.80 C 157.42 93.54 155.10 95.53 152.20 96.39 C 150.32 94.17 148.92 91.53 149.13 88.54 M 151.95 92.82 C 152.44 93.13 153.43 93.76 153.92 94.07 C 155.50 92.44 157.06 90.78 158.35 88.90 C 156.00 89.82 153.87 91.20 151.95 92.82 Z" />
<path fill="#dfdfdf" opacity="1.00" d=" M 99.93 111.56 C 98.84 109.00 97.51 104.01 101.19 103.08 C 109.21 103.47 117.20 104.44 125.19 105.17 C 125.23 105.91 125.31 107.38 125.35 108.12 C 116.86 109.11 108.49 111.26 99.93 111.56 Z" />
<path fill="#dfdfdf" opacity="1.00" d=" M 51.43 131.46 C 46.40 124.02 42.77 114.05 46.34 105.28 C 46.98 112.85 47.09 120.72 50.88 127.56 C 52.00 125.55 52.89 122.13 55.91 122.83 C 58.97 123.13 58.96 127.12 58.35 129.39 C 57.61 131.73 54.95 131.80 52.97 132.27 C 53.59 140.02 54.56 147.85 53.50 155.62 C 52.85 159.92 51.05 164.11 47.86 167.14 C 49.39 163.83 51.82 160.85 52.31 157.14 C 53.64 148.61 52.42 139.95 51.43 131.46 M 52.61 129.96 C 54.14 129.85 56.09 130.36 56.91 128.63 C 57.30 126.87 56.61 125.17 55.95 123.58 C 53.40 124.76 52.40 127.26 52.61 129.96 Z" />
<path fill="#dfdfdf" opacity="1.00" d=" M 157.41 108.32 C 159.13 107.27 159.26 109.85 157.78 110.17 C 156.12 111.16 155.79 108.50 157.41 108.32 Z" />
<path fill="#dfdfdf" opacity="1.00" d=" M 134.50 110.50 C 136.28 109.74 138.10 109.05 139.95 108.44 C 142.02 110.07 144.17 112.06 147.02 111.92 C 149.87 112.42 153.41 109.78 155.43 112.77 C 157.19 111.65 158.94 110.51 160.79 109.54 C 155.44 118.38 141.18 122.28 133.64 113.99 C 133.92 112.83 134.21 111.66 134.50 110.50 Z" />
<path fill="#dfdfdf" opacity="1.00" d=" M 112.41 116.82 C 111.79 113.54 113.56 109.81 117.33 110.01 C 116.76 115.55 119.45 120.76 119.98 126.26 C 121.71 121.35 119.36 116.20 119.17 111.21 C 121.78 115.65 121.57 120.99 122.03 125.95 C 122.29 136.41 123.01 147.51 118.22 157.18 C 115.47 162.48 110.84 167.07 104.94 168.59 C 104.21 168.25 102.75 167.56 102.02 167.21 C 104.53 165.31 107.46 163.96 109.67 161.67 C 113.61 157.88 115.21 152.31 115.64 147.00 C 116.20 136.83 114.09 126.79 112.41 116.82 Z" />
<path fill="#dfdfdf" opacity="1.00" d=" M 193.44 117.10 C 193.50 114.14 196.84 111.16 199.74 112.80 C 202.69 115.15 202.04 119.41 201.98 122.72 C 200.12 120.83 201.56 117.47 198.95 116.18 C 198.55 122.76 197.28 129.19 195.93 135.62 C 198.61 131.89 199.55 127.20 200.06 122.72 C 200.67 123.16 201.09 123.74 201.33 124.46 C 200.81 128.01 199.77 131.46 199.07 134.97 C 201.90 138.29 202.96 142.80 206.26 145.77 C 208.54 148.19 211.71 149.41 214.73 150.65 C 214.68 153.22 215.29 156.50 212.72 158.12 C 209.53 159.16 207.06 155.98 204.93 154.08 C 200.83 150.26 198.96 144.86 197.80 139.53 C 194.50 148.60 188.71 157.59 179.39 161.30 C 177.85 161.86 174.78 162.83 175.07 160.12 C 179.43 157.27 184.04 154.36 186.74 149.72 C 192.79 140.00 192.90 128.15 193.44 117.10 M 206.42 153.19 C 207.81 154.97 209.79 156.09 211.85 156.96 C 211.87 156.35 211.92 155.12 211.95 154.51 C 210.11 154.06 208.27 153.56 206.42 153.19 Z" />
<path fill="#dfdfdf" opacity="1.00" d=" M 142.51 120.54 C 145.41 119.48 148.27 120.54 150.76 122.08 C 149.86 128.55 150.31 135.10 149.43 141.56 C 157.38 141.22 166.14 143.24 171.47 149.57 C 174.68 153.06 175.30 159.21 171.49 162.52 C 170.51 164.03 168.62 163.54 167.11 163.68 C 168.02 161.10 170.62 159.00 170.27 156.10 C 168.77 151.25 163.45 148.99 158.85 148.14 C 148.93 146.46 139.53 151.29 131.55 156.64 C 128.91 158.74 125.50 158.15 122.49 157.39 C 121.66 154.04 123.72 151.13 126.49 149.48 C 132.37 145.97 138.85 143.35 145.61 142.11 C 145.09 134.84 141.24 127.93 142.51 120.54 M 129.02 149.02 C 127.46 149.97 126.50 151.55 125.97 153.27 C 128.71 152.58 130.60 150.35 133.04 149.07 C 137.12 146.69 141.87 146.08 146.39 145.06 C 145.42 144.67 144.42 144.16 143.33 144.41 C 138.36 145.07 133.26 146.22 129.02 149.02 Z" />
</g>
</svg>
