<?xml version="1.0" encoding="UTF-8" ?>
<!DOCTYPE svg PUBLIC "-//W3C//DTD SVG 1.1//EN" "http://www.w3.org/Graphics/SVG/1.1/DTD/svg11.dtd">
<svg width="563pt" height="444pt" viewBox="0 0 563 444" version="1.1" xmlns="http://www.w3.org/2000/svg">
<g id="#ffffffff">
</g>
<g id="#4d4d4dff">
<path fill="#9f9f9f" opacity="1.00" d=" M 279.93 10.13 C 313.46 0.37 349.35 -1.19 383.63 5.42 C 429.69 14.10 472.58 38.26 504.14 72.88 C 531.61 102.63 550.73 140.16 558.14 180.00 C 565.28 219.05 564.05 260.59 548.89 297.68 C 536.14 332.80 514.19 364.50 485.96 388.95 C 457.65 413.46 423.05 430.75 386.31 438.16 C 354.98 444.62 322.16 444.28 291.03 436.83 C 235.86 424.25 186.53 388.94 156.02 341.37 C 190.70 341.30 225.37 341.37 260.04 341.34 C 261.60 341.21 263.02 341.87 264.28 342.72 C 283.86 355.51 306.70 363.09 329.98 365.02 C 349.99 366.88 370.32 363.83 389.29 357.32 C 398.22 354.34 406.53 349.86 414.88 345.58 C 420.80 351.17 426.02 357.56 432.61 362.39 C 440.45 367.65 450.54 369.98 459.78 367.58 C 468.56 365.66 476.12 360.25 482.38 354.00 C 470.95 342.08 459.02 330.63 447.47 318.83 C 455.57 309.15 464.19 299.27 468.18 287.07 C 477.79 261.59 483.55 234.27 481.85 206.96 C 481.50 193.06 478.38 179.31 473.69 166.26 C 463.77 142.57 447.21 121.72 426.51 106.52 C 406.50 91.66 382.50 82.39 357.75 79.53 C 321.06 75.20 282.82 85.96 253.76 108.79 C 252.05 110.07 250.37 111.84 248.03 111.53 C 215.64 111.55 183.25 111.50 150.85 111.56 C 162.01 91.41 177.07 73.55 194.05 58.04 C 218.59 35.89 248.16 19.31 279.93 10.13 Z" />
</g>
<g id="#1880aeff">
<path fill="#1989fa" opacity="1.00" d=" M 318.91 137.11 C 335.89 132.73 354.31 133.25 370.87 139.19 C 390.52 146.01 407.54 160.16 417.81 178.26 C 426.09 192.30 430.00 208.74 429.36 225.00 C 429.10 244.83 421.13 264.09 408.48 279.22 C 399.29 272.28 392.86 261.96 382.49 256.54 C 374.55 252.07 364.93 250.93 356.13 253.15 C 348.31 255.55 341.22 260.13 335.63 266.08 C 343.55 274.58 352.04 282.53 360.14 290.86 C 364.41 295.33 369.24 299.30 373.04 304.22 C 358.98 309.73 343.58 310.84 328.68 309.07 C 307.96 305.87 288.36 295.24 274.85 279.15 C 260.31 262.45 252.90 240.05 253.69 218.00 C 254.62 205.40 257.59 192.80 263.61 181.62 C 274.72 159.89 295.35 143.39 318.91 137.11 Z" />
<path fill="#1989fa" opacity="1.00" d=" M 41.98 149.17 C 103.41 144.87 164.84 140.43 226.29 136.28 C 220.72 144.87 215.24 153.53 210.93 162.85 C 162.61 159.99 114.30 157.57 66.00 154.57 C 49.72 154.56 33.53 151.83 17.24 152.54 C 25.14 149.62 33.71 149.87 41.98 149.17 Z" />
<path fill="#1989fa" opacity="1.00" d=" M 117.90 198.44 C 145.97 194.81 173.99 190.76 202.13 187.66 C 200.53 196.33 198.99 205.04 198.52 213.86 C 191.64 213.86 184.87 212.44 178.01 212.07 C 146.99 208.92 115.94 206.18 84.95 202.73 C 95.92 201.19 106.87 199.52 117.90 198.44 Z" />
<path fill="#1989fa" opacity="1.00" d=" M 108.75 245.39 C 133.89 243.03 159.12 241.90 184.28 239.69 C 189.33 239.43 194.38 239.33 199.44 239.09 C 200.16 248.05 202.53 256.72 204.58 265.43 C 195.71 264.65 186.85 263.78 177.99 262.79 C 164.28 262.17 150.70 260.00 137.00 259.20 C 117.01 257.22 96.99 255.63 77.01 253.51 C 65.27 252.62 53.53 251.63 41.85 250.11 C 64.13 248.44 86.43 246.78 108.75 245.39 Z" />
<path fill="#1989fa" opacity="1.00" d=" M 166.05 291.55 C 182.58 291.56 199.06 290.08 215.59 290.29 C 220.20 299.73 227.04 307.75 232.93 316.36 C 218.46 316.00 204.09 314.01 189.65 313.19 C 151.02 309.75 112.32 307.20 73.70 303.66 C 58.46 302.94 43.32 300.82 28.07 300.30 C 18.72 299.47 9.38 298.48 0.00 298.09 L 0.00 297.56 C 7.36 297.52 14.72 297.22 22.06 296.67 C 37.37 296.42 52.66 295.85 67.95 295.14 C 80.62 294.16 93.34 294.77 106.00 293.72 C 120.33 293.63 134.63 292.55 148.96 292.41 C 154.67 292.45 160.34 291.55 166.05 291.55 Z" />
</g>
</svg>
