<?xml version="1.0" encoding="UTF-8"?>
<svg width="30px" height="30px" viewBox="0 0 30 30" version="1.1" xmlns="http://www.w3.org/2000/svg" xmlns:xlink="http://www.w3.org/1999/xlink">
    <g id="羚羊web-改版2.0" stroke="none" stroke-width="1" fill="none" fill-rule="evenodd">
        <g id="1.-羚羊Web-首页2.0-定稿" transform="translate(-579.000000, -256.000000)">
            <g id="编组-44" transform="translate(575.000000, 252.000000)">
                <g id="voice" transform="translate(4.000000, 4.000000)">
                    <rect id="矩形" x="0" y="0" width="20" height="20"></rect>
                    <path d="M4.58333333,9.58333333 C4.79701493,9.58333333 4.97312798,9.74418341 4.99719678,9.95140786 L5,10 C5,12.4911257 6.98740149,14.5180688 9.46316355,14.5817886 L9.58333333,14.5833333 L10.4166667,14.5833333 C12.9077923,14.5833333 14.9347355,12.5959318 14.9984552,10.1201698 L15,10 C15,9.76988135 15.186548,9.58333333 15.4166667,9.58333333 L16.25,9.58333333 C16.4636816,9.58333333 16.6397947,9.74418341 16.6638634,9.95140786 L16.6666667,10 C16.6666667,13.3116457 14.0910365,16.0217207 10.8336937,16.2363077 L10.8333333,17.9166667 C10.8333333,18.1467853 10.6467853,18.3333333 10.4166667,18.3333333 L9.58333333,18.3333333 C9.35321469,18.3333333 9.16666667,18.1467853 9.16666667,17.9166667 L9.16671825,16.2363348 C5.95215831,16.0247776 3.4014199,13.3828629 3.33467407,10.1307617 L3.33333333,10 C3.33333333,9.76988135 3.51988135,9.58333333 3.75,9.58333333 L4.58333333,9.58333333 Z M10,1.66666667 C12.0340845,1.66666667 13.6899131,3.28617236 13.7484012,5.30609906 L13.75,5.41666667 L13.75,9.58333333 C13.75,11.6544011 12.0710678,13.3333333 10,13.3333333 C7.96591554,13.3333333 6.31008691,11.7138276 6.25159879,9.69390094 L6.25,9.58333333 L6.25,5.41666667 C6.25,3.34559885 7.92893219,1.66666667 10,1.66666667 Z M10,3.33333333 C8.87968554,3.33333333 7.96590912,4.2176278 7.91859146,5.32629599 L7.91666667,5.41666667 L7.91666667,9.58333333 C7.91666667,10.7339266 8.84940677,11.6666667 10,11.6666667 C11.1203145,11.6666667 12.0340909,10.7823722 12.0814085,9.67370401 L12.0833333,9.58333333 L12.0833333,5.41666667 C12.0833333,4.26607344 11.1505932,3.33333333 10,3.33333333 Z" id="形状" fill="#3F454D" fill-rule="nonzero"></path>
                </g>
            </g>
        </g>
    </g>
</svg>