<?xml version="1.0" encoding="UTF-8"?>
<svg width="16px" height="16px" viewBox="0 0 16 16" version="1.1" xmlns="http://www.w3.org/2000/svg" xmlns:xlink="http://www.w3.org/1999/xlink">
    <g id="羚羊web-改版2.0" stroke="none" stroke-width="1" fill="none" fill-rule="evenodd">
        <g id="1.-羚羊Web-首页2.0-定稿" transform="translate(-437.000000, -406.000000)">
            <g id="编组-33" transform="translate(252.000000, 368.000000)">
                <g id="编组-56" transform="translate(185.000000, 34.000000)">
                    <g id="编组-4" transform="translate(0.000000, 4.000000)">
                        <rect id="矩形" opacity="0" x="0" y="0" width="16" height="16"></rect>
                        <path d="M11.0159772,5.65443757 L10.6819041,6.69424024 C10.5835439,7.00038634 10.3439646,7.24055548 10.0380613,7.33966815 L8.97871741,7.68289556 C8.80358546,7.73963831 8.70761205,7.92760989 8.76435481,8.10274184 C8.79730327,8.20443462 8.87702462,8.28415598 8.97871741,8.31710444 L10.0380613,8.66033185 C10.3439646,8.75944452 10.5835439,8.99961366 10.6819041,9.30575976 L11.0159772,10.3455624 C11.0722892,10.5208334 11.2600242,10.6172687 11.4352951,10.5609567 C11.5376191,10.5280816 11.6178143,10.4478864 11.6506894,10.3455624 L11.9847626,9.30575976 C12.0831228,8.99961366 12.3227021,8.75944452 12.6286054,8.66033185 L13.6879493,8.31710444 C13.8630812,8.26036169 13.9590546,8.07239011 13.9023119,7.89725816 C13.8693634,7.79556538 13.789642,7.71584402 13.6879493,7.68289556 L12.6286054,7.33966815 C12.3227021,7.24055548 12.0831228,7.00038634 11.9847626,6.69424024 L11.6506894,5.65443757 C11.5943775,5.47916662 11.4066425,5.38273131 11.2313715,5.43904326 C11.1290475,5.47191843 11.0488524,5.55211358 11.0159772,5.65443757 Z M2,2.66666667 L14,2.66666667 C14.1840949,2.66666667 14.3333333,2.81590508 14.3333333,3 L14.3333333,3.66666667 C14.3333333,3.85076158 14.1840949,4 14,4 L2,4 C1.81590508,4 1.66666667,3.85076158 1.66666667,3.66666667 L1.66666667,3 C1.66666667,2.81590508 1.81590508,2.66666667 2,2.66666667 Z M2,7.33333333 L6,7.33333333 C6.18409492,7.33333333 6.33333333,7.48257175 6.33333333,7.66666667 L6.33333333,8.33333333 C6.33333333,8.51742825 6.18409492,8.66666667 6,8.66666667 L2,8.66666667 C1.81590508,8.66666667 1.66666667,8.51742825 1.66666667,8.33333333 L1.66666667,7.66666667 C1.66666667,7.48257175 1.81590508,7.33333333 2,7.33333333 Z M2,12 L14,12 C14.1840949,12 14.3333333,12.1492384 14.3333333,12.3333333 L14.3333333,13 C14.3333333,13.1840949 14.1840949,13.3333333 14,13.3333333 L2,13.3333333 C1.81590508,13.3333333 1.66666667,13.1840949 1.66666667,13 L1.66666667,12.3333333 C1.66666667,12.1492384 1.81590508,12 2,12 Z" id="形状" fill="#13AE68"></path>
                    </g>
                </g>
            </g>
        </g>
    </g>
</svg>